<?xml version="1.0" encoding="utf-8" standalone="no"?>
<!DOCTYPE svg PUBLIC "-//W3C//DTD SVG 1.1//EN"
  "http://www.w3.org/Graphics/SVG/1.1/DTD/svg11.dtd">
<svg xmlns:xlink="http://www.w3.org/1999/xlink" width="1424.424207pt" height="619.23522pt" viewBox="0 0 1424.424207 619.23522" xmlns="http://www.w3.org/2000/svg" version="1.1">
 <metadata>
  <rdf:RDF xmlns:dc="http://purl.org/dc/elements/1.1/" xmlns:cc="http://creativecommons.org/ns#" xmlns:rdf="http://www.w3.org/1999/02/22-rdf-syntax-ns#">
   <cc:Work>
    <dc:type rdf:resource="http://purl.org/dc/dcmitype/StillImage"/>
    <dc:date>2026-08-10T02:07:02.570036</dc:date>
    <dc:format>image/svg+xml</dc:format>
    <dc:creator>
     <cc:Agent>
      <dc:title>Matplotlib v3.10.1, https://matplotlib.org/</dc:title>
     </cc:Agent>
    </dc:creator>
   </cc:Work>
  </rdf:RDF>
 </metadata>
 <defs>
  <style type="text/css">*{stroke-linejoin: round; stroke-linecap: butt}</style>
 </defs>
 <g id="figure_1">
  <g id="patch_1">
   <path d="M 0 619.23522 
L 1424.424207 619.23522 
L 1424.424207 0 
L 0 0 
z
" style="fill: #ffffff"/>
  </g>
  <g id="axes_1">
   <g id="patch_2">
    <path d="M 433.00022 261.18286 
C 433.00022 255.510118 432.732562 249.840533 432.198138 244.193021 
C 431.663714 238.545509 430.86312 232.926356 429.799027 227.354309 
L 252.658332 261.18286 
z
" style="fill: #1f77b4"/>
   </g>
   <g id="patch_3">
    <path d="M 429.799027 227.354309 
C 429.302522 224.754398 428.748838 222.165732 428.138379 219.590194 
C 427.527919 217.014656 426.860831 214.45287 426.1376 211.906697 
L 252.658332 261.18286 
z
" style="fill: #ff7f0e"/>
   </g>
   <g id="patch_4">
    <path d="M 426.1376 211.906697 
C 425.362705 209.178639 424.523567 206.469239 423.620887 203.780758 
C 422.718207 201.092276 421.752236 198.425461 420.723779 195.782538 
L 252.658332 261.18286 
z
" style="fill: #2ca02c"/>
   </g>
   <g id="patch_5">
    <path d="M 420.723779 195.782538 
C 412.645689 175.023498 400.790912 155.939672 385.760835 139.49917 
C 370.730758 123.058669 352.783907 109.54428 332.830716 99.641579 
C 312.877525 89.738879 291.261201 83.6182 269.078328 81.590042 
C 246.895454 79.561883 224.527591 81.661131 203.109445 87.78129 
C 181.6913 93.90145 161.591279 103.937251 143.829043 117.379583 
C 126.066808 130.821916 110.94788 147.439562 99.239235 166.389521 
C 87.530589 185.339479 79.433622 206.295798 75.359087 228.195375 
C 71.284552 250.094952 71.302534 272.5611 75.412121 294.454127 
C 79.521708 316.347153 87.652212 337.290483 99.391178 356.221673 
C 111.130144 375.152864 126.275654 391.746287 144.059386 405.160168 
C 161.843117 418.574049 181.959178 428.577661 203.387093 434.663526 
C 224.815008 440.749391 247.186204 442.812829 269.365802 440.749162 
C 291.545401 438.685496 313.151899 432.530221 333.089212 422.595592 
C 353.026525 412.660963 370.951718 399.117862 385.955458 382.653321 
C 400.959197 366.18878 412.783409 347.086001 420.828258 326.314055 
C 428.873107 305.54211 433.000216 283.458289 433.00022 261.182893 
L 252.658332 261.18286 
z
" style="fill: #d62728"/>
   </g>
   <g id="matplotlib.axis_1"/>
   <g id="matplotlib.axis_2"/>
   <g id="text_1">
    <!-- remaining -->
    <g transform="translate(7.2 300.540628) scale(0.1 -0.1)">
     <defs>
      <path id="DejaVuSans-72" d="M 2631 2963 
Q 2534 3019 2420 3045 
Q 2306 3072 2169 3072 
Q 1681 3072 1420 2755 
Q 1159 2438 1159 1844 
L 1159 0 
L 581 0 
L 581 3500 
L 1159 3500 
L 1159 2956 
Q 1341 3275 1631 3429 
Q 1922 3584 2338 3584 
Q 2397 3584 2469 3576 
Q 2541 3569 2628 3553 
L 2631 2963 
z
" transform="scale(0.015625)"/>
      <path id="DejaVuSans-65" d="M 3597 1894 
L 3597 1613 
L 953 1613 
Q 991 1019 1311 708 
Q 1631 397 2203 397 
Q 2534 397 2845 478 
Q 3156 559 3463 722 
L 3463 178 
Q 3153 47 2828 -22 
Q 2503 -91 2169 -91 
Q 1331 -91 842 396 
Q 353 884 353 1716 
Q 353 2575 817 3079 
Q 1281 3584 2069 3584 
Q 2775 3584 3186 3129 
Q 3597 2675 3597 1894 
z
M 3022 2063 
Q 3016 2534 2758 2815 
Q 2500 3097 2075 3097 
Q 1594 3097 1305 2825 
Q 1016 2553 972 2059 
L 3022 2063 
z
" transform="scale(0.015625)"/>
      <path id="DejaVuSans-6d" d="M 3328 2828 
Q 3544 3216 3844 3400 
Q 4144 3584 4550 3584 
Q 5097 3584 5394 3201 
Q 5691 2819 5691 2113 
L 5691 0 
L 5113 0 
L 5113 2094 
Q 5113 2597 4934 2840 
Q 4756 3084 4391 3084 
Q 3944 3084 3684 2787 
Q 3425 2491 3425 1978 
L 3425 0 
L 2847 0 
L 2847 2094 
Q 2847 2600 2669 2842 
Q 2491 3084 2119 3084 
Q 1678 3084 1418 2786 
Q 1159 2488 1159 1978 
L 1159 0 
L 581 0 
L 581 3500 
L 1159 3500 
L 1159 2956 
Q 1356 3278 1631 3431 
Q 1906 3584 2284 3584 
Q 2666 3584 2933 3390 
Q 3200 3197 3328 2828 
z
" transform="scale(0.015625)"/>
      <path id="DejaVuSans-61" d="M 2194 1759 
Q 1497 1759 1228 1600 
Q 959 1441 959 1056 
Q 959 750 1161 570 
Q 1363 391 1709 391 
Q 2188 391 2477 730 
Q 2766 1069 2766 1631 
L 2766 1759 
L 2194 1759 
z
M 3341 1997 
L 3341 0 
L 2766 0 
L 2766 531 
Q 2569 213 2275 61 
Q 1981 -91 1556 -91 
Q 1019 -91 701 211 
Q 384 513 384 1019 
Q 384 1609 779 1909 
Q 1175 2209 1959 2209 
L 2766 2209 
L 2766 2266 
Q 2766 2663 2505 2880 
Q 2244 3097 1772 3097 
Q 1472 3097 1187 3025 
Q 903 2953 641 2809 
L 641 3341 
Q 956 3463 1253 3523 
Q 1550 3584 1831 3584 
Q 2591 3584 2966 3190 
Q 3341 2797 3341 1997 
z
" transform="scale(0.015625)"/>
      <path id="DejaVuSans-69" d="M 603 3500 
L 1178 3500 
L 1178 0 
L 603 0 
L 603 3500 
z
M 603 4863 
L 1178 4863 
L 1178 4134 
L 603 4134 
L 603 4863 
z
" transform="scale(0.015625)"/>
      <path id="DejaVuSans-6e" d="M 3513 2113 
L 3513 0 
L 2938 0 
L 2938 2094 
Q 2938 2591 2744 2837 
Q 2550 3084 2163 3084 
Q 1697 3084 1428 2787 
Q 1159 2491 1159 1978 
L 1159 0 
L 581 0 
L 581 3500 
L 1159 3500 
L 1159 2956 
Q 1366 3272 1645 3428 
Q 1925 3584 2291 3584 
Q 2894 3584 3203 3211 
Q 3513 2838 3513 2113 
z
" transform="scale(0.015625)"/>
      <path id="DejaVuSans-67" d="M 2906 1791 
Q 2906 2416 2648 2759 
Q 2391 3103 1925 3103 
Q 1463 3103 1205 2759 
Q 947 2416 947 1791 
Q 947 1169 1205 825 
Q 1463 481 1925 481 
Q 2391 481 2648 825 
Q 2906 1169 2906 1791 
z
M 3481 434 
Q 3481 -459 3084 -895 
Q 2688 -1331 1869 -1331 
Q 1566 -1331 1297 -1286 
Q 1028 -1241 775 -1147 
L 775 -588 
Q 1028 -725 1275 -790 
Q 1522 -856 1778 -856 
Q 2344 -856 2625 -561 
Q 2906 -266 2906 331 
L 2906 616 
Q 2728 306 2450 153 
Q 2172 0 1784 0 
Q 1141 0 747 490 
Q 353 981 353 1791 
Q 353 2603 747 3093 
Q 1141 3584 1784 3584 
Q 2172 3584 2450 3431 
Q 2728 3278 2906 2969 
L 2906 3500 
L 3481 3500 
L 3481 434 
z
" transform="scale(0.015625)"/>
     </defs>
     <use xlink:href="#DejaVuSans-72"/>
     <use xlink:href="#DejaVuSans-65" transform="translate(38.863281 0)"/>
     <use xlink:href="#DejaVuSans-6d" transform="translate(100.386719 0)"/>
     <use xlink:href="#DejaVuSans-61" transform="translate(197.798828 0)"/>
     <use xlink:href="#DejaVuSans-69" transform="translate(259.078125 0)"/>
     <use xlink:href="#DejaVuSans-6e" transform="translate(286.861328 0)"/>
     <use xlink:href="#DejaVuSans-69" transform="translate(350.240234 0)"/>
     <use xlink:href="#DejaVuSans-6e" transform="translate(378.023438 0)"/>
     <use xlink:href="#DejaVuSans-67" transform="translate(441.402344 0)"/>
    </g>
   </g>
   <g id="text_2">
    <!-- 94.1% -->
    <g transform="translate(130.427012 283.904995) scale(0.1 -0.1)">
     <defs>
      <path id="DejaVuSans-39" d="M 703 97 
L 703 672 
Q 941 559 1184 500 
Q 1428 441 1663 441 
Q 2288 441 2617 861 
Q 2947 1281 2994 2138 
Q 2813 1869 2534 1725 
Q 2256 1581 1919 1581 
Q 1219 1581 811 2004 
Q 403 2428 403 3163 
Q 403 3881 828 4315 
Q 1253 4750 1959 4750 
Q 2769 4750 3195 4129 
Q 3622 3509 3622 2328 
Q 3622 1225 3098 567 
Q 2575 -91 1691 -91 
Q 1453 -91 1209 -44 
Q 966 3 703 97 
z
M 1959 2075 
Q 2384 2075 2632 2365 
Q 2881 2656 2881 3163 
Q 2881 3666 2632 3958 
Q 2384 4250 1959 4250 
Q 1534 4250 1286 3958 
Q 1038 3666 1038 3163 
Q 1038 2656 1286 2365 
Q 1534 2075 1959 2075 
z
" transform="scale(0.015625)"/>
      <path id="DejaVuSans-34" d="M 2419 4116 
L 825 1625 
L 2419 1625 
L 2419 4116 
z
M 2253 4666 
L 3047 4666 
L 3047 1625 
L 3713 1625 
L 3713 1100 
L 3047 1100 
L 3047 0 
L 2419 0 
L 2419 1100 
L 313 1100 
L 313 1709 
L 2253 4666 
z
" transform="scale(0.015625)"/>
      <path id="DejaVuSans-2e" d="M 684 794 
L 1344 794 
L 1344 0 
L 684 0 
L 684 794 
z
" transform="scale(0.015625)"/>
      <path id="DejaVuSans-31" d="M 794 531 
L 1825 531 
L 1825 4091 
L 703 3866 
L 703 4441 
L 1819 4666 
L 2450 4666 
L 2450 531 
L 3481 531 
L 3481 0 
L 794 0 
L 794 531 
z
" transform="scale(0.015625)"/>
      <path id="DejaVuSans-25" d="M 4653 2053 
Q 4381 2053 4226 1822 
Q 4072 1591 4072 1178 
Q 4072 772 4226 539 
Q 4381 306 4653 306 
Q 4919 306 5073 539 
Q 5228 772 5228 1178 
Q 5228 1588 5073 1820 
Q 4919 2053 4653 2053 
z
M 4653 2450 
Q 5147 2450 5437 2106 
Q 5728 1763 5728 1178 
Q 5728 594 5436 251 
Q 5144 -91 4653 -91 
Q 4153 -91 3862 251 
Q 3572 594 3572 1178 
Q 3572 1766 3864 2108 
Q 4156 2450 4653 2450 
z
M 1428 4353 
Q 1159 4353 1004 4120 
Q 850 3888 850 3481 
Q 850 3069 1003 2837 
Q 1156 2606 1428 2606 
Q 1700 2606 1854 2837 
Q 2009 3069 2009 3481 
Q 2009 3884 1853 4118 
Q 1697 4353 1428 4353 
z
M 4250 4750 
L 4750 4750 
L 1831 -91 
L 1331 -91 
L 4250 4750 
z
M 1428 4750 
Q 1922 4750 2215 4408 
Q 2509 4066 2509 3481 
Q 2509 2891 2217 2550 
Q 1925 2209 1428 2209 
Q 931 2209 642 2551 
Q 353 2894 353 3481 
Q 353 4063 643 4406 
Q 934 4750 1428 4750 
z
" transform="scale(0.015625)"/>
     </defs>
     <use xlink:href="#DejaVuSans-39"/>
     <use xlink:href="#DejaVuSans-34" transform="translate(63.623047 0)"/>
     <use xlink:href="#DejaVuSans-2e" transform="translate(127.246094 0)"/>
     <use xlink:href="#DejaVuSans-31" transform="translate(159.033203 0)"/>
     <use xlink:href="#DejaVuSans-25" transform="translate(222.65625 0)"/>
    </g>
   </g>
   <g id="text_3">
    <!-- $\mathbf{Gadi}$  -->
    <g transform="translate(235.378332 16.318125) scale(0.12 -0.12)">
     <defs>
      <path id="DejaVuSans-Bold-47" d="M 4781 347 
Q 4331 128 3847 18 
Q 3363 -91 2847 -91 
Q 1681 -91 1000 561 
Q 319 1213 319 2328 
Q 319 3456 1012 4103 
Q 1706 4750 2913 4750 
Q 3378 4750 3804 4662 
Q 4231 4575 4609 4403 
L 4609 3438 
Q 4219 3659 3833 3768 
Q 3447 3878 3059 3878 
Q 2341 3878 1952 3476 
Q 1563 3075 1563 2328 
Q 1563 1588 1938 1184 
Q 2313 781 3003 781 
Q 3191 781 3352 804 
Q 3513 828 3641 878 
L 3641 1784 
L 2906 1784 
L 2906 2591 
L 4781 2591 
L 4781 347 
z
" transform="scale(0.015625)"/>
      <path id="DejaVuSans-Bold-61" d="M 2106 1575 
Q 1756 1575 1579 1456 
Q 1403 1338 1403 1106 
Q 1403 894 1545 773 
Q 1688 653 1941 653 
Q 2256 653 2472 879 
Q 2688 1106 2688 1447 
L 2688 1575 
L 2106 1575 
z
M 3816 1997 
L 3816 0 
L 2688 0 
L 2688 519 
Q 2463 200 2181 54 
Q 1900 -91 1497 -91 
Q 953 -91 614 226 
Q 275 544 275 1050 
Q 275 1666 698 1953 
Q 1122 2241 2028 2241 
L 2688 2241 
L 2688 2328 
Q 2688 2594 2478 2717 
Q 2269 2841 1825 2841 
Q 1466 2841 1156 2769 
Q 847 2697 581 2553 
L 581 3406 
Q 941 3494 1303 3539 
Q 1666 3584 2028 3584 
Q 2975 3584 3395 3211 
Q 3816 2838 3816 1997 
z
" transform="scale(0.015625)"/>
      <path id="DejaVuSans-Bold-64" d="M 2919 2988 
L 2919 4863 
L 4044 4863 
L 4044 0 
L 2919 0 
L 2919 506 
Q 2688 197 2409 53 
Q 2131 -91 1766 -91 
Q 1119 -91 703 423 
Q 288 938 288 1747 
Q 288 2556 703 3070 
Q 1119 3584 1766 3584 
Q 2128 3584 2408 3439 
Q 2688 3294 2919 2988 
z
M 2181 722 
Q 2541 722 2730 984 
Q 2919 1247 2919 1747 
Q 2919 2247 2730 2509 
Q 2541 2772 2181 2772 
Q 1825 2772 1636 2509 
Q 1447 2247 1447 1747 
Q 1447 1247 1636 984 
Q 1825 722 2181 722 
z
" transform="scale(0.015625)"/>
      <path id="DejaVuSans-Bold-69" d="M 538 3500 
L 1656 3500 
L 1656 0 
L 538 0 
L 538 3500 
z
M 538 4863 
L 1656 4863 
L 1656 3950 
L 538 3950 
L 538 4863 
z
" transform="scale(0.015625)"/>
      <path id="DejaVuSans-20" transform="scale(0.015625)"/>
     </defs>
     <use xlink:href="#DejaVuSans-Bold-47" transform="translate(0 0.015625)"/>
     <use xlink:href="#DejaVuSans-Bold-61" transform="translate(82.080078 0.015625)"/>
     <use xlink:href="#DejaVuSans-Bold-64" transform="translate(149.560547 0.015625)"/>
     <use xlink:href="#DejaVuSans-Bold-69" transform="translate(221.142578 0.015625)"/>
     <use xlink:href="#DejaVuSans-20" transform="translate(255.419922 0.015625)"/>
    </g>
    <!--  (as a percent of overall used) -->
    <g transform="translate(162.473645 29.7555) scale(0.12 -0.12)">
     <defs>
      <path id="DejaVuSans-28" d="M 1984 4856 
Q 1566 4138 1362 3434 
Q 1159 2731 1159 2009 
Q 1159 1288 1364 580 
Q 1569 -128 1984 -844 
L 1484 -844 
Q 1016 -109 783 600 
Q 550 1309 550 2009 
Q 550 2706 781 3412 
Q 1013 4119 1484 4856 
L 1984 4856 
z
" transform="scale(0.015625)"/>
      <path id="DejaVuSans-73" d="M 2834 3397 
L 2834 2853 
Q 2591 2978 2328 3040 
Q 2066 3103 1784 3103 
Q 1356 3103 1142 2972 
Q 928 2841 928 2578 
Q 928 2378 1081 2264 
Q 1234 2150 1697 2047 
L 1894 2003 
Q 2506 1872 2764 1633 
Q 3022 1394 3022 966 
Q 3022 478 2636 193 
Q 2250 -91 1575 -91 
Q 1294 -91 989 -36 
Q 684 19 347 128 
L 347 722 
Q 666 556 975 473 
Q 1284 391 1588 391 
Q 1994 391 2212 530 
Q 2431 669 2431 922 
Q 2431 1156 2273 1281 
Q 2116 1406 1581 1522 
L 1381 1569 
Q 847 1681 609 1914 
Q 372 2147 372 2553 
Q 372 3047 722 3315 
Q 1072 3584 1716 3584 
Q 2034 3584 2315 3537 
Q 2597 3491 2834 3397 
z
" transform="scale(0.015625)"/>
      <path id="DejaVuSans-70" d="M 1159 525 
L 1159 -1331 
L 581 -1331 
L 581 3500 
L 1159 3500 
L 1159 2969 
Q 1341 3281 1617 3432 
Q 1894 3584 2278 3584 
Q 2916 3584 3314 3078 
Q 3713 2572 3713 1747 
Q 3713 922 3314 415 
Q 2916 -91 2278 -91 
Q 1894 -91 1617 61 
Q 1341 213 1159 525 
z
M 3116 1747 
Q 3116 2381 2855 2742 
Q 2594 3103 2138 3103 
Q 1681 3103 1420 2742 
Q 1159 2381 1159 1747 
Q 1159 1113 1420 752 
Q 1681 391 2138 391 
Q 2594 391 2855 752 
Q 3116 1113 3116 1747 
z
" transform="scale(0.015625)"/>
      <path id="DejaVuSans-63" d="M 3122 3366 
L 3122 2828 
Q 2878 2963 2633 3030 
Q 2388 3097 2138 3097 
Q 1578 3097 1268 2742 
Q 959 2388 959 1747 
Q 959 1106 1268 751 
Q 1578 397 2138 397 
Q 2388 397 2633 464 
Q 2878 531 3122 666 
L 3122 134 
Q 2881 22 2623 -34 
Q 2366 -91 2075 -91 
Q 1284 -91 818 406 
Q 353 903 353 1747 
Q 353 2603 823 3093 
Q 1294 3584 2113 3584 
Q 2378 3584 2631 3529 
Q 2884 3475 3122 3366 
z
" transform="scale(0.015625)"/>
      <path id="DejaVuSans-74" d="M 1172 4494 
L 1172 3500 
L 2356 3500 
L 2356 3053 
L 1172 3053 
L 1172 1153 
Q 1172 725 1289 603 
Q 1406 481 1766 481 
L 2356 481 
L 2356 0 
L 1766 0 
Q 1100 0 847 248 
Q 594 497 594 1153 
L 594 3053 
L 172 3053 
L 172 3500 
L 594 3500 
L 594 4494 
L 1172 4494 
z
" transform="scale(0.015625)"/>
      <path id="DejaVuSans-6f" d="M 1959 3097 
Q 1497 3097 1228 2736 
Q 959 2375 959 1747 
Q 959 1119 1226 758 
Q 1494 397 1959 397 
Q 2419 397 2687 759 
Q 2956 1122 2956 1747 
Q 2956 2369 2687 2733 
Q 2419 3097 1959 3097 
z
M 1959 3584 
Q 2709 3584 3137 3096 
Q 3566 2609 3566 1747 
Q 3566 888 3137 398 
Q 2709 -91 1959 -91 
Q 1206 -91 779 398 
Q 353 888 353 1747 
Q 353 2609 779 3096 
Q 1206 3584 1959 3584 
z
" transform="scale(0.015625)"/>
      <path id="DejaVuSans-66" d="M 2375 4863 
L 2375 4384 
L 1825 4384 
Q 1516 4384 1395 4259 
Q 1275 4134 1275 3809 
L 1275 3500 
L 2222 3500 
L 2222 3053 
L 1275 3053 
L 1275 0 
L 697 0 
L 697 3053 
L 147 3053 
L 147 3500 
L 697 3500 
L 697 3744 
Q 697 4328 969 4595 
Q 1241 4863 1831 4863 
L 2375 4863 
z
" transform="scale(0.015625)"/>
      <path id="DejaVuSans-76" d="M 191 3500 
L 800 3500 
L 1894 563 
L 2988 3500 
L 3597 3500 
L 2284 0 
L 1503 0 
L 191 3500 
z
" transform="scale(0.015625)"/>
      <path id="DejaVuSans-6c" d="M 603 4863 
L 1178 4863 
L 1178 0 
L 603 0 
L 603 4863 
z
" transform="scale(0.015625)"/>
      <path id="DejaVuSans-75" d="M 544 1381 
L 544 3500 
L 1119 3500 
L 1119 1403 
Q 1119 906 1312 657 
Q 1506 409 1894 409 
Q 2359 409 2629 706 
Q 2900 1003 2900 1516 
L 2900 3500 
L 3475 3500 
L 3475 0 
L 2900 0 
L 2900 538 
Q 2691 219 2414 64 
Q 2138 -91 1772 -91 
Q 1169 -91 856 284 
Q 544 659 544 1381 
z
M 1991 3584 
L 1991 3584 
z
" transform="scale(0.015625)"/>
      <path id="DejaVuSans-64" d="M 2906 2969 
L 2906 4863 
L 3481 4863 
L 3481 0 
L 2906 0 
L 2906 525 
Q 2725 213 2448 61 
Q 2172 -91 1784 -91 
Q 1150 -91 751 415 
Q 353 922 353 1747 
Q 353 2572 751 3078 
Q 1150 3584 1784 3584 
Q 2172 3584 2448 3432 
Q 2725 3281 2906 2969 
z
M 947 1747 
Q 947 1113 1208 752 
Q 1469 391 1925 391 
Q 2381 391 2643 752 
Q 2906 1113 2906 1747 
Q 2906 2381 2643 2742 
Q 2381 3103 1925 3103 
Q 1469 3103 1208 2742 
Q 947 2381 947 1747 
z
" transform="scale(0.015625)"/>
      <path id="DejaVuSans-29" d="M 513 4856 
L 1013 4856 
Q 1481 4119 1714 3412 
Q 1947 2706 1947 2009 
Q 1947 1309 1714 600 
Q 1481 -109 1013 -844 
L 513 -844 
Q 928 -128 1133 580 
Q 1338 1288 1338 2009 
Q 1338 2731 1133 3434 
Q 928 4138 513 4856 
z
" transform="scale(0.015625)"/>
     </defs>
     <use xlink:href="#DejaVuSans-20"/>
     <use xlink:href="#DejaVuSans-28" transform="translate(31.787109 0)"/>
     <use xlink:href="#DejaVuSans-61" transform="translate(70.800781 0)"/>
     <use xlink:href="#DejaVuSans-73" transform="translate(132.080078 0)"/>
     <use xlink:href="#DejaVuSans-20" transform="translate(184.179688 0)"/>
     <use xlink:href="#DejaVuSans-61" transform="translate(215.966797 0)"/>
     <use xlink:href="#DejaVuSans-20" transform="translate(277.246094 0)"/>
     <use xlink:href="#DejaVuSans-70" transform="translate(309.033203 0)"/>
     <use xlink:href="#DejaVuSans-65" transform="translate(372.509766 0)"/>
     <use xlink:href="#DejaVuSans-72" transform="translate(434.033203 0)"/>
     <use xlink:href="#DejaVuSans-63" transform="translate(472.896484 0)"/>
     <use xlink:href="#DejaVuSans-65" transform="translate(527.876953 0)"/>
     <use xlink:href="#DejaVuSans-6e" transform="translate(589.400391 0)"/>
     <use xlink:href="#DejaVuSans-74" transform="translate(652.779297 0)"/>
     <use xlink:href="#DejaVuSans-20" transform="translate(691.988281 0)"/>
     <use xlink:href="#DejaVuSans-6f" transform="translate(723.775391 0)"/>
     <use xlink:href="#DejaVuSans-66" transform="translate(784.957031 0)"/>
     <use xlink:href="#DejaVuSans-20" transform="translate(820.162109 0)"/>
     <use xlink:href="#DejaVuSans-6f" transform="translate(851.949219 0)"/>
     <use xlink:href="#DejaVuSans-76" transform="translate(913.130859 0)"/>
     <use xlink:href="#DejaVuSans-65" transform="translate(972.310547 0)"/>
     <use xlink:href="#DejaVuSans-72" transform="translate(1033.833984 0)"/>
     <use xlink:href="#DejaVuSans-61" transform="translate(1074.947266 0)"/>
     <use xlink:href="#DejaVuSans-6c" transform="translate(1136.226562 0)"/>
     <use xlink:href="#DejaVuSans-6c" transform="translate(1164.009766 0)"/>
     <use xlink:href="#DejaVuSans-20" transform="translate(1191.792969 0)"/>
     <use xlink:href="#DejaVuSans-75" transform="translate(1223.580078 0)"/>
     <use xlink:href="#DejaVuSans-73" transform="translate(1286.958984 0)"/>
     <use xlink:href="#DejaVuSans-65" transform="translate(1339.058594 0)"/>
     <use xlink:href="#DejaVuSans-64" transform="translate(1400.582031 0)"/>
     <use xlink:href="#DejaVuSans-29" transform="translate(1464.058594 0)"/>
    </g>
   </g>
   <g id="legend_1">
    <g id="text_4">
     <!-- As a percent of total allocation -->
     <g transform="translate(180.374589 503.208657) scale(0.1 -0.1)">
      <defs>
       <path id="DejaVuSans-41" d="M 2188 4044 
L 1331 1722 
L 3047 1722 
L 2188 4044 
z
M 1831 4666 
L 2547 4666 
L 4325 0 
L 3669 0 
L 3244 1197 
L 1141 1197 
L 716 0 
L 50 0 
L 1831 4666 
z
" transform="scale(0.015625)"/>
      </defs>
      <use xlink:href="#DejaVuSans-41"/>
      <use xlink:href="#DejaVuSans-73" transform="translate(68.408203 0)"/>
      <use xlink:href="#DejaVuSans-20" transform="translate(120.507812 0)"/>
      <use xlink:href="#DejaVuSans-61" transform="translate(152.294922 0)"/>
      <use xlink:href="#DejaVuSans-20" transform="translate(213.574219 0)"/>
      <use xlink:href="#DejaVuSans-70" transform="translate(245.361328 0)"/>
      <use xlink:href="#DejaVuSans-65" transform="translate(308.837891 0)"/>
      <use xlink:href="#DejaVuSans-72" transform="translate(370.361328 0)"/>
      <use xlink:href="#DejaVuSans-63" transform="translate(409.224609 0)"/>
      <use xlink:href="#DejaVuSans-65" transform="translate(464.205078 0)"/>
      <use xlink:href="#DejaVuSans-6e" transform="translate(525.728516 0)"/>
      <use xlink:href="#DejaVuSans-74" transform="translate(589.107422 0)"/>
      <use xlink:href="#DejaVuSans-20" transform="translate(628.316406 0)"/>
      <use xlink:href="#DejaVuSans-6f" transform="translate(660.103516 0)"/>
      <use xlink:href="#DejaVuSans-66" transform="translate(721.285156 0)"/>
      <use xlink:href="#DejaVuSans-20" transform="translate(756.490234 0)"/>
      <use xlink:href="#DejaVuSans-74" transform="translate(788.277344 0)"/>
      <use xlink:href="#DejaVuSans-6f" transform="translate(827.486328 0)"/>
      <use xlink:href="#DejaVuSans-74" transform="translate(888.667969 0)"/>
      <use xlink:href="#DejaVuSans-61" transform="translate(927.876953 0)"/>
      <use xlink:href="#DejaVuSans-6c" transform="translate(989.15625 0)"/>
      <use xlink:href="#DejaVuSans-20" transform="translate(1016.939453 0)"/>
      <use xlink:href="#DejaVuSans-61" transform="translate(1048.726562 0)"/>
      <use xlink:href="#DejaVuSans-6c" transform="translate(1110.005859 0)"/>
      <use xlink:href="#DejaVuSans-6c" transform="translate(1137.789062 0)"/>
      <use xlink:href="#DejaVuSans-6f" transform="translate(1165.572266 0)"/>
      <use xlink:href="#DejaVuSans-63" transform="translate(1226.753906 0)"/>
      <use xlink:href="#DejaVuSans-61" transform="translate(1281.734375 0)"/>
      <use xlink:href="#DejaVuSans-74" transform="translate(1343.013672 0)"/>
      <use xlink:href="#DejaVuSans-69" transform="translate(1382.222656 0)"/>
      <use xlink:href="#DejaVuSans-6f" transform="translate(1410.005859 0)"/>
      <use xlink:href="#DejaVuSans-6e" transform="translate(1471.1875 0)"/>
     </g>
    </g>
    <g id="patch_6">
     <path d="M 198.701151 517.886782 
L 218.701151 517.886782 
L 218.701151 510.886782 
L 198.701151 510.886782 
z
" style="fill: #1f77b4"/>
    </g>
    <g id="text_5">
     <!-- am8223: 3.0% -->
     <g transform="translate(226.701151 517.886782) scale(0.1 -0.1)">
      <defs>
       <path id="DejaVuSans-38" d="M 2034 2216 
Q 1584 2216 1326 1975 
Q 1069 1734 1069 1313 
Q 1069 891 1326 650 
Q 1584 409 2034 409 
Q 2484 409 2743 651 
Q 3003 894 3003 1313 
Q 3003 1734 2745 1975 
Q 2488 2216 2034 2216 
z
M 1403 2484 
Q 997 2584 770 2862 
Q 544 3141 544 3541 
Q 544 4100 942 4425 
Q 1341 4750 2034 4750 
Q 2731 4750 3128 4425 
Q 3525 4100 3525 3541 
Q 3525 3141 3298 2862 
Q 3072 2584 2669 2484 
Q 3125 2378 3379 2068 
Q 3634 1759 3634 1313 
Q 3634 634 3220 271 
Q 2806 -91 2034 -91 
Q 1263 -91 848 271 
Q 434 634 434 1313 
Q 434 1759 690 2068 
Q 947 2378 1403 2484 
z
M 1172 3481 
Q 1172 3119 1398 2916 
Q 1625 2713 2034 2713 
Q 2441 2713 2670 2916 
Q 2900 3119 2900 3481 
Q 2900 3844 2670 4047 
Q 2441 4250 2034 4250 
Q 1625 4250 1398 4047 
Q 1172 3844 1172 3481 
z
" transform="scale(0.015625)"/>
       <path id="DejaVuSans-32" d="M 1228 531 
L 3431 531 
L 3431 0 
L 469 0 
L 469 531 
Q 828 903 1448 1529 
Q 2069 2156 2228 2338 
Q 2531 2678 2651 2914 
Q 2772 3150 2772 3378 
Q 2772 3750 2511 3984 
Q 2250 4219 1831 4219 
Q 1534 4219 1204 4116 
Q 875 4013 500 3803 
L 500 4441 
Q 881 4594 1212 4672 
Q 1544 4750 1819 4750 
Q 2544 4750 2975 4387 
Q 3406 4025 3406 3419 
Q 3406 3131 3298 2873 
Q 3191 2616 2906 2266 
Q 2828 2175 2409 1742 
Q 1991 1309 1228 531 
z
" transform="scale(0.015625)"/>
       <path id="DejaVuSans-33" d="M 2597 2516 
Q 3050 2419 3304 2112 
Q 3559 1806 3559 1356 
Q 3559 666 3084 287 
Q 2609 -91 1734 -91 
Q 1441 -91 1130 -33 
Q 819 25 488 141 
L 488 750 
Q 750 597 1062 519 
Q 1375 441 1716 441 
Q 2309 441 2620 675 
Q 2931 909 2931 1356 
Q 2931 1769 2642 2001 
Q 2353 2234 1838 2234 
L 1294 2234 
L 1294 2753 
L 1863 2753 
Q 2328 2753 2575 2939 
Q 2822 3125 2822 3475 
Q 2822 3834 2567 4026 
Q 2313 4219 1838 4219 
Q 1578 4219 1281 4162 
Q 984 4106 628 3988 
L 628 4550 
Q 988 4650 1302 4700 
Q 1616 4750 1894 4750 
Q 2613 4750 3031 4423 
Q 3450 4097 3450 3541 
Q 3450 3153 3228 2886 
Q 3006 2619 2597 2516 
z
" transform="scale(0.015625)"/>
       <path id="DejaVuSans-3a" d="M 750 794 
L 1409 794 
L 1409 0 
L 750 0 
L 750 794 
z
M 750 3309 
L 1409 3309 
L 1409 2516 
L 750 2516 
L 750 3309 
z
" transform="scale(0.015625)"/>
       <path id="DejaVuSans-30" d="M 2034 4250 
Q 1547 4250 1301 3770 
Q 1056 3291 1056 2328 
Q 1056 1369 1301 889 
Q 1547 409 2034 409 
Q 2525 409 2770 889 
Q 3016 1369 3016 2328 
Q 3016 3291 2770 3770 
Q 2525 4250 2034 4250 
z
M 2034 4750 
Q 2819 4750 3233 4129 
Q 3647 3509 3647 2328 
Q 3647 1150 3233 529 
Q 2819 -91 2034 -91 
Q 1250 -91 836 529 
Q 422 1150 422 2328 
Q 422 3509 836 4129 
Q 1250 4750 2034 4750 
z
" transform="scale(0.015625)"/>
      </defs>
      <use xlink:href="#DejaVuSans-61"/>
      <use xlink:href="#DejaVuSans-6d" transform="translate(61.279297 0)"/>
      <use xlink:href="#DejaVuSans-38" transform="translate(158.691406 0)"/>
      <use xlink:href="#DejaVuSans-32" transform="translate(222.314453 0)"/>
      <use xlink:href="#DejaVuSans-32" transform="translate(285.9375 0)"/>
      <use xlink:href="#DejaVuSans-33" transform="translate(349.560547 0)"/>
      <use xlink:href="#DejaVuSans-3a" transform="translate(413.183594 0)"/>
      <use xlink:href="#DejaVuSans-20" transform="translate(446.875 0)"/>
      <use xlink:href="#DejaVuSans-33" transform="translate(478.662109 0)"/>
      <use xlink:href="#DejaVuSans-2e" transform="translate(542.285156 0)"/>
      <use xlink:href="#DejaVuSans-30" transform="translate(574.072266 0)"/>
      <use xlink:href="#DejaVuSans-25" transform="translate(637.695312 0)"/>
     </g>
    </g>
    <g id="patch_7">
     <path d="M 198.701151 532.564907 
L 218.701151 532.564907 
L 218.701151 525.564907 
L 198.701151 525.564907 
z
" style="fill: #ff7f0e"/>
    </g>
    <g id="text_6">
     <!-- aq8103: 1.4% -->
     <g transform="translate(226.701151 532.564907) scale(0.1 -0.1)">
      <defs>
       <path id="DejaVuSans-71" d="M 947 1747 
Q 947 1113 1208 752 
Q 1469 391 1925 391 
Q 2381 391 2643 752 
Q 2906 1113 2906 1747 
Q 2906 2381 2643 2742 
Q 2381 3103 1925 3103 
Q 1469 3103 1208 2742 
Q 947 2381 947 1747 
z
M 2906 525 
Q 2725 213 2448 61 
Q 2172 -91 1784 -91 
Q 1150 -91 751 415 
Q 353 922 353 1747 
Q 353 2572 751 3078 
Q 1150 3584 1784 3584 
Q 2172 3584 2448 3432 
Q 2725 3281 2906 2969 
L 2906 3500 
L 3481 3500 
L 3481 -1331 
L 2906 -1331 
L 2906 525 
z
" transform="scale(0.015625)"/>
      </defs>
      <use xlink:href="#DejaVuSans-61"/>
      <use xlink:href="#DejaVuSans-71" transform="translate(61.279297 0)"/>
      <use xlink:href="#DejaVuSans-38" transform="translate(124.755859 0)"/>
      <use xlink:href="#DejaVuSans-31" transform="translate(188.378906 0)"/>
      <use xlink:href="#DejaVuSans-30" transform="translate(252.001953 0)"/>
      <use xlink:href="#DejaVuSans-33" transform="translate(315.625 0)"/>
      <use xlink:href="#DejaVuSans-3a" transform="translate(379.248047 0)"/>
      <use xlink:href="#DejaVuSans-20" transform="translate(412.939453 0)"/>
      <use xlink:href="#DejaVuSans-31" transform="translate(444.726562 0)"/>
      <use xlink:href="#DejaVuSans-2e" transform="translate(508.349609 0)"/>
      <use xlink:href="#DejaVuSans-34" transform="translate(540.136719 0)"/>
      <use xlink:href="#DejaVuSans-25" transform="translate(603.759766 0)"/>
     </g>
    </g>
    <g id="patch_8">
     <path d="M 198.701151 547.243032 
L 218.701151 547.243032 
L 218.701151 540.243032 
L 198.701151 540.243032 
z
" style="fill: #2ca02c"/>
    </g>
    <g id="text_7">
     <!-- vr5686: 1.5% -->
     <g transform="translate(226.701151 547.243032) scale(0.1 -0.1)">
      <defs>
       <path id="DejaVuSans-35" d="M 691 4666 
L 3169 4666 
L 3169 4134 
L 1269 4134 
L 1269 2991 
Q 1406 3038 1543 3061 
Q 1681 3084 1819 3084 
Q 2600 3084 3056 2656 
Q 3513 2228 3513 1497 
Q 3513 744 3044 326 
Q 2575 -91 1722 -91 
Q 1428 -91 1123 -41 
Q 819 9 494 109 
L 494 744 
Q 775 591 1075 516 
Q 1375 441 1709 441 
Q 2250 441 2565 725 
Q 2881 1009 2881 1497 
Q 2881 1984 2565 2268 
Q 2250 2553 1709 2553 
Q 1456 2553 1204 2497 
Q 953 2441 691 2322 
L 691 4666 
z
" transform="scale(0.015625)"/>
       <path id="DejaVuSans-36" d="M 2113 2584 
Q 1688 2584 1439 2293 
Q 1191 2003 1191 1497 
Q 1191 994 1439 701 
Q 1688 409 2113 409 
Q 2538 409 2786 701 
Q 3034 994 3034 1497 
Q 3034 2003 2786 2293 
Q 2538 2584 2113 2584 
z
M 3366 4563 
L 3366 3988 
Q 3128 4100 2886 4159 
Q 2644 4219 2406 4219 
Q 1781 4219 1451 3797 
Q 1122 3375 1075 2522 
Q 1259 2794 1537 2939 
Q 1816 3084 2150 3084 
Q 2853 3084 3261 2657 
Q 3669 2231 3669 1497 
Q 3669 778 3244 343 
Q 2819 -91 2113 -91 
Q 1303 -91 875 529 
Q 447 1150 447 2328 
Q 447 3434 972 4092 
Q 1497 4750 2381 4750 
Q 2619 4750 2861 4703 
Q 3103 4656 3366 4563 
z
" transform="scale(0.015625)"/>
      </defs>
      <use xlink:href="#DejaVuSans-76"/>
      <use xlink:href="#DejaVuSans-72" transform="translate(59.179688 0)"/>
      <use xlink:href="#DejaVuSans-35" transform="translate(100.292969 0)"/>
      <use xlink:href="#DejaVuSans-36" transform="translate(163.916016 0)"/>
      <use xlink:href="#DejaVuSans-38" transform="translate(227.539062 0)"/>
      <use xlink:href="#DejaVuSans-36" transform="translate(291.162109 0)"/>
      <use xlink:href="#DejaVuSans-3a" transform="translate(354.785156 0)"/>
      <use xlink:href="#DejaVuSans-20" transform="translate(388.476562 0)"/>
      <use xlink:href="#DejaVuSans-31" transform="translate(420.263672 0)"/>
      <use xlink:href="#DejaVuSans-2e" transform="translate(483.886719 0)"/>
      <use xlink:href="#DejaVuSans-35" transform="translate(515.673828 0)"/>
      <use xlink:href="#DejaVuSans-25" transform="translate(579.296875 0)"/>
     </g>
    </g>
    <g id="patch_9">
     <path d="M 198.701151 561.921157 
L 218.701151 561.921157 
L 218.701151 554.921157 
L 198.701151 554.921157 
z
" style="fill: #d62728"/>
    </g>
    <g id="text_8">
     <!-- remaining: 94.0% -->
     <g transform="translate(226.701151 561.921157) scale(0.1 -0.1)">
      <use xlink:href="#DejaVuSans-72"/>
      <use xlink:href="#DejaVuSans-65" transform="translate(38.863281 0)"/>
      <use xlink:href="#DejaVuSans-6d" transform="translate(100.386719 0)"/>
      <use xlink:href="#DejaVuSans-61" transform="translate(197.798828 0)"/>
      <use xlink:href="#DejaVuSans-69" transform="translate(259.078125 0)"/>
      <use xlink:href="#DejaVuSans-6e" transform="translate(286.861328 0)"/>
      <use xlink:href="#DejaVuSans-69" transform="translate(350.240234 0)"/>
      <use xlink:href="#DejaVuSans-6e" transform="translate(378.023438 0)"/>
      <use xlink:href="#DejaVuSans-67" transform="translate(441.402344 0)"/>
      <use xlink:href="#DejaVuSans-3a" transform="translate(504.878906 0)"/>
      <use xlink:href="#DejaVuSans-20" transform="translate(538.570312 0)"/>
      <use xlink:href="#DejaVuSans-39" transform="translate(570.357422 0)"/>
      <use xlink:href="#DejaVuSans-34" transform="translate(633.980469 0)"/>
      <use xlink:href="#DejaVuSans-2e" transform="translate(697.603516 0)"/>
      <use xlink:href="#DejaVuSans-30" transform="translate(729.390625 0)"/>
      <use xlink:href="#DejaVuSans-25" transform="translate(793.013672 0)"/>
     </g>
    </g>
   </g>
  </g>
  <g id="axes_2">
   <g id="patch_10">
    <path d="M 902.569477 261.18286 
C 902.569477 261.18286 902.569477 261.18286 902.569477 261.18286 
L 722.227589 261.18286 
z
" style="fill: #1f77b4"/>
   </g>
   <g id="patch_11">
    <path d="M 902.569477 261.18286 
C 902.569477 261.18286 902.569477 261.18286 902.569477 261.18286 
L 722.227589 261.18286 
z
" style="fill: #ff7f0e"/>
   </g>
   <g id="patch_12">
    <path d="M 902.569477 261.18286 
C 902.569477 258.161043 902.493527 255.139704 902.341698 252.121704 
C 902.189869 249.103704 901.962209 246.089997 901.658934 243.083438 
L 722.227589 261.18286 
z
" style="fill: #2ca02c"/>
   </g>
   <g id="patch_13">
    <path d="M 901.658934 243.083438 
C 901.488348 241.392309 901.293863 239.703677 901.075536 238.018046 
C 900.857209 236.332416 900.615063 234.649957 900.349169 232.971173 
L 722.227589 261.18286 
z
" style="fill: #d62728"/>
   </g>
   <g id="patch_14">
    <path d="M 900.349169 232.971173 
C 897.555933 215.335371 892.158941 198.211789 884.335048 182.161544 
C 876.511155 166.1113 866.346764 151.311645 854.17495 138.247549 
C 842.003136 125.183453 827.95832 113.99919 812.500735 105.061254 
C 797.043149 96.123318 780.3435 89.530417 762.949017 85.498592 
C 745.554534 81.466768 727.657314 80.040545 709.843827 81.26666 
C 692.030341 82.492775 674.497313 86.357687 657.819281 92.734748 
C 641.141249 99.111809 625.502398 107.930592 611.415195 118.902117 
C 597.327992 129.873642 584.948009 142.876744 574.680926 157.485325 
C 564.413843 172.093907 556.373044 188.146637 550.822016 205.117487 
C 545.270989 222.088337 542.271037 239.789888 541.920464 257.64208 
C 541.569892 275.494272 543.872571 293.299953 548.753046 310.475651 
C 553.633521 327.65135 561.037893 344.007385 570.72353 359.007788 
C 580.409167 374.008191 592.269105 387.487303 605.914707 399.003431 
C 619.560309 410.519559 634.840879 419.945522 651.25569 426.972444 
C 667.670502 433.999365 685.038276 438.549641 702.789892 440.474166 
C 720.541508 442.398691 738.480923 441.67621 756.020285 438.330398 
L 722.227589 261.18286 
z
" style="fill: #9467bd"/>
   </g>
   <g id="patch_15">
    <path d="M 756.020285 438.330398 
C 763.071699 436.985269 770.036511 435.220314 776.877537 433.044955 
C 783.718562 430.869597 790.423602 428.287714 796.956858 425.313091 
L 722.227589 261.18286 
z
" style="fill: #8c564b"/>
   </g>
   <g id="patch_16">
    <path d="M 796.956858 425.313091 
C 828.4499 410.974161 855.160321 387.869489 873.885123 358.769688 
C 892.609925 329.669887 902.569479 295.786562 902.569477 261.182854 
L 722.227589 261.18286 
z
" style="fill: #e377c2"/>
   </g>
   <g id="matplotlib.axis_3"/>
   <g id="matplotlib.axis_4"/>
   <g id="text_9">
    <!-- aks19 -->
    <g transform="translate(530.073135 149.874947) scale(0.1 -0.1)">
     <defs>
      <path id="DejaVuSans-6b" d="M 581 4863 
L 1159 4863 
L 1159 1991 
L 2875 3500 
L 3609 3500 
L 1753 1863 
L 3688 0 
L 2938 0 
L 1159 1709 
L 1159 0 
L 581 0 
L 581 4863 
z
" transform="scale(0.015625)"/>
     </defs>
     <use xlink:href="#DejaVuSans-61"/>
     <use xlink:href="#DejaVuSans-6b" transform="translate(61.279297 0)"/>
     <use xlink:href="#DejaVuSans-73" transform="translate(119.189453 0)"/>
     <use xlink:href="#DejaVuSans-31" transform="translate(171.289062 0)"/>
     <use xlink:href="#DejaVuSans-39" transform="translate(234.912109 0)"/>
    </g>
   </g>
   <g id="text_10">
    <!-- 75.5% -->
    <g transform="translate(617.815998 201.723714) scale(0.1 -0.1)">
     <defs>
      <path id="DejaVuSans-37" d="M 525 4666 
L 3525 4666 
L 3525 4397 
L 1831 0 
L 1172 0 
L 2766 4134 
L 525 4134 
L 525 4666 
z
" transform="scale(0.015625)"/>
     </defs>
     <use xlink:href="#DejaVuSans-37"/>
     <use xlink:href="#DejaVuSans-35" transform="translate(63.623047 0)"/>
     <use xlink:href="#DejaVuSans-2e" transform="translate(127.246094 0)"/>
     <use xlink:href="#DejaVuSans-35" transform="translate(159.033203 0)"/>
     <use xlink:href="#DejaVuSans-25" transform="translate(222.65625 0)"/>
    </g>
   </g>
   <g id="text_11">
    <!-- remaining -->
    <g transform="translate(889.050876 371.287746) scale(0.1 -0.1)">
     <use xlink:href="#DejaVuSans-72"/>
     <use xlink:href="#DejaVuSans-65" transform="translate(38.863281 0)"/>
     <use xlink:href="#DejaVuSans-6d" transform="translate(100.386719 0)"/>
     <use xlink:href="#DejaVuSans-61" transform="translate(197.798828 0)"/>
     <use xlink:href="#DejaVuSans-69" transform="translate(259.078125 0)"/>
     <use xlink:href="#DejaVuSans-6e" transform="translate(286.861328 0)"/>
     <use xlink:href="#DejaVuSans-69" transform="translate(350.240234 0)"/>
     <use xlink:href="#DejaVuSans-6e" transform="translate(378.023438 0)"/>
     <use xlink:href="#DejaVuSans-67" transform="translate(441.402344 0)"/>
    </g>
   </g>
   <g id="text_12">
    <!-- 18.2% -->
    <g transform="translate(797.338516 322.494332) scale(0.1 -0.1)">
     <use xlink:href="#DejaVuSans-31"/>
     <use xlink:href="#DejaVuSans-38" transform="translate(63.623047 0)"/>
     <use xlink:href="#DejaVuSans-2e" transform="translate(127.246094 0)"/>
     <use xlink:href="#DejaVuSans-32" transform="translate(159.033203 0)"/>
     <use xlink:href="#DejaVuSans-25" transform="translate(222.65625 0)"/>
    </g>
   </g>
   <g id="text_13">
    <!-- $\mathbf{Setonix CPU}$  -->
    <g transform="translate(681.067589 16.318125) scale(0.12 -0.12)">
     <defs>
      <path id="DejaVuSans-Bold-53" d="M 3834 4519 
L 3834 3531 
Q 3450 3703 3084 3790 
Q 2719 3878 2394 3878 
Q 1963 3878 1756 3759 
Q 1550 3641 1550 3391 
Q 1550 3203 1689 3098 
Q 1828 2994 2194 2919 
L 2706 2816 
Q 3484 2659 3812 2340 
Q 4141 2022 4141 1434 
Q 4141 663 3683 286 
Q 3225 -91 2284 -91 
Q 1841 -91 1394 -6 
Q 947 78 500 244 
L 500 1259 
Q 947 1022 1364 901 
Q 1781 781 2169 781 
Q 2563 781 2772 912 
Q 2981 1044 2981 1288 
Q 2981 1506 2839 1625 
Q 2697 1744 2272 1838 
L 1806 1941 
Q 1106 2091 782 2419 
Q 459 2747 459 3303 
Q 459 4000 909 4375 
Q 1359 4750 2203 4750 
Q 2588 4750 2994 4692 
Q 3400 4634 3834 4519 
z
" transform="scale(0.015625)"/>
      <path id="DejaVuSans-Bold-65" d="M 4031 1759 
L 4031 1441 
L 1416 1441 
Q 1456 1047 1700 850 
Q 1944 653 2381 653 
Q 2734 653 3104 758 
Q 3475 863 3866 1075 
L 3866 213 
Q 3469 63 3072 -14 
Q 2675 -91 2278 -91 
Q 1328 -91 801 392 
Q 275 875 275 1747 
Q 275 2603 792 3093 
Q 1309 3584 2216 3584 
Q 3041 3584 3536 3087 
Q 4031 2591 4031 1759 
z
M 2881 2131 
Q 2881 2450 2695 2645 
Q 2509 2841 2209 2841 
Q 1884 2841 1681 2658 
Q 1478 2475 1428 2131 
L 2881 2131 
z
" transform="scale(0.015625)"/>
      <path id="DejaVuSans-Bold-74" d="M 1759 4494 
L 1759 3500 
L 2913 3500 
L 2913 2700 
L 1759 2700 
L 1759 1216 
Q 1759 972 1856 886 
Q 1953 800 2241 800 
L 2816 800 
L 2816 0 
L 1856 0 
Q 1194 0 917 276 
Q 641 553 641 1216 
L 641 2700 
L 84 2700 
L 84 3500 
L 641 3500 
L 641 4494 
L 1759 4494 
z
" transform="scale(0.015625)"/>
      <path id="DejaVuSans-Bold-6f" d="M 2203 2784 
Q 1831 2784 1636 2517 
Q 1441 2250 1441 1747 
Q 1441 1244 1636 976 
Q 1831 709 2203 709 
Q 2569 709 2762 976 
Q 2956 1244 2956 1747 
Q 2956 2250 2762 2517 
Q 2569 2784 2203 2784 
z
M 2203 3584 
Q 3106 3584 3614 3096 
Q 4122 2609 4122 1747 
Q 4122 884 3614 396 
Q 3106 -91 2203 -91 
Q 1297 -91 786 396 
Q 275 884 275 1747 
Q 275 2609 786 3096 
Q 1297 3584 2203 3584 
z
" transform="scale(0.015625)"/>
      <path id="DejaVuSans-Bold-6e" d="M 4056 2131 
L 4056 0 
L 2931 0 
L 2931 347 
L 2931 1631 
Q 2931 2084 2911 2256 
Q 2891 2428 2841 2509 
Q 2775 2619 2662 2680 
Q 2550 2741 2406 2741 
Q 2056 2741 1856 2470 
Q 1656 2200 1656 1722 
L 1656 0 
L 538 0 
L 538 3500 
L 1656 3500 
L 1656 2988 
Q 1909 3294 2193 3439 
Q 2478 3584 2822 3584 
Q 3428 3584 3742 3212 
Q 4056 2841 4056 2131 
z
" transform="scale(0.015625)"/>
      <path id="DejaVuSans-Bold-78" d="M 1422 1791 
L 159 3500 
L 1344 3500 
L 2059 2463 
L 2784 3500 
L 3969 3500 
L 2706 1797 
L 4031 0 
L 2847 0 
L 2059 1106 
L 1281 0 
L 97 0 
L 1422 1791 
z
" transform="scale(0.015625)"/>
      <path id="DejaVuSans-Bold-43" d="M 4288 256 
Q 3956 84 3597 -3 
Q 3238 -91 2847 -91 
Q 1681 -91 1000 561 
Q 319 1213 319 2328 
Q 319 3447 1000 4098 
Q 1681 4750 2847 4750 
Q 3238 4750 3597 4662 
Q 3956 4575 4288 4403 
L 4288 3438 
Q 3953 3666 3628 3772 
Q 3303 3878 2944 3878 
Q 2300 3878 1931 3465 
Q 1563 3053 1563 2328 
Q 1563 1606 1931 1193 
Q 2300 781 2944 781 
Q 3303 781 3628 887 
Q 3953 994 4288 1222 
L 4288 256 
z
" transform="scale(0.015625)"/>
      <path id="DejaVuSans-Bold-50" d="M 588 4666 
L 2584 4666 
Q 3475 4666 3951 4270 
Q 4428 3875 4428 3144 
Q 4428 2409 3951 2014 
Q 3475 1619 2584 1619 
L 1791 1619 
L 1791 0 
L 588 0 
L 588 4666 
z
M 1791 3794 
L 1791 2491 
L 2456 2491 
Q 2806 2491 2997 2661 
Q 3188 2831 3188 3144 
Q 3188 3456 2997 3625 
Q 2806 3794 2456 3794 
L 1791 3794 
z
" transform="scale(0.015625)"/>
      <path id="DejaVuSans-Bold-55" d="M 588 4666 
L 1791 4666 
L 1791 1869 
Q 1791 1291 1980 1042 
Q 2169 794 2597 794 
Q 3028 794 3217 1042 
Q 3406 1291 3406 1869 
L 3406 4666 
L 4609 4666 
L 4609 1869 
Q 4609 878 4112 393 
Q 3616 -91 2597 -91 
Q 1581 -91 1084 393 
Q 588 878 588 1869 
L 588 4666 
z
" transform="scale(0.015625)"/>
     </defs>
     <use xlink:href="#DejaVuSans-Bold-53" transform="translate(0 0.015625)"/>
     <use xlink:href="#DejaVuSans-Bold-65" transform="translate(72.021484 0.015625)"/>
     <use xlink:href="#DejaVuSans-Bold-74" transform="translate(139.84375 0.015625)"/>
     <use xlink:href="#DejaVuSans-Bold-6f" transform="translate(187.646484 0.015625)"/>
     <use xlink:href="#DejaVuSans-Bold-6e" transform="translate(256.347656 0.015625)"/>
     <use xlink:href="#DejaVuSans-Bold-69" transform="translate(327.539062 0.015625)"/>
     <use xlink:href="#DejaVuSans-Bold-78" transform="translate(361.816406 0.015625)"/>
     <use xlink:href="#DejaVuSans-Bold-43" transform="translate(426.318359 0.015625)"/>
     <use xlink:href="#DejaVuSans-Bold-50" transform="translate(499.707031 0.015625)"/>
     <use xlink:href="#DejaVuSans-Bold-55" transform="translate(572.998047 0.015625)"/>
     <use xlink:href="#DejaVuSans-20" transform="translate(654.199219 0.015625)"/>
    </g>
    <!--  (as a percent of overall used) -->
    <g transform="translate(632.042902 29.7555) scale(0.12 -0.12)">
     <use xlink:href="#DejaVuSans-20"/>
     <use xlink:href="#DejaVuSans-28" transform="translate(31.787109 0)"/>
     <use xlink:href="#DejaVuSans-61" transform="translate(70.800781 0)"/>
     <use xlink:href="#DejaVuSans-73" transform="translate(132.080078 0)"/>
     <use xlink:href="#DejaVuSans-20" transform="translate(184.179688 0)"/>
     <use xlink:href="#DejaVuSans-61" transform="translate(215.966797 0)"/>
     <use xlink:href="#DejaVuSans-20" transform="translate(277.246094 0)"/>
     <use xlink:href="#DejaVuSans-70" transform="translate(309.033203 0)"/>
     <use xlink:href="#DejaVuSans-65" transform="translate(372.509766 0)"/>
     <use xlink:href="#DejaVuSans-72" transform="translate(434.033203 0)"/>
     <use xlink:href="#DejaVuSans-63" transform="translate(472.896484 0)"/>
     <use xlink:href="#DejaVuSans-65" transform="translate(527.876953 0)"/>
     <use xlink:href="#DejaVuSans-6e" transform="translate(589.400391 0)"/>
     <use xlink:href="#DejaVuSans-74" transform="translate(652.779297 0)"/>
     <use xlink:href="#DejaVuSans-20" transform="translate(691.988281 0)"/>
     <use xlink:href="#DejaVuSans-6f" transform="translate(723.775391 0)"/>
     <use xlink:href="#DejaVuSans-66" transform="translate(784.957031 0)"/>
     <use xlink:href="#DejaVuSans-20" transform="translate(820.162109 0)"/>
     <use xlink:href="#DejaVuSans-6f" transform="translate(851.949219 0)"/>
     <use xlink:href="#DejaVuSans-76" transform="translate(913.130859 0)"/>
     <use xlink:href="#DejaVuSans-65" transform="translate(972.310547 0)"/>
     <use xlink:href="#DejaVuSans-72" transform="translate(1033.833984 0)"/>
     <use xlink:href="#DejaVuSans-61" transform="translate(1074.947266 0)"/>
     <use xlink:href="#DejaVuSans-6c" transform="translate(1136.226562 0)"/>
     <use xlink:href="#DejaVuSans-6c" transform="translate(1164.009766 0)"/>
     <use xlink:href="#DejaVuSans-20" transform="translate(1191.792969 0)"/>
     <use xlink:href="#DejaVuSans-75" transform="translate(1223.580078 0)"/>
     <use xlink:href="#DejaVuSans-73" transform="translate(1286.958984 0)"/>
     <use xlink:href="#DejaVuSans-65" transform="translate(1339.058594 0)"/>
     <use xlink:href="#DejaVuSans-64" transform="translate(1400.582031 0)"/>
     <use xlink:href="#DejaVuSans-29" transform="translate(1464.058594 0)"/>
    </g>
   </g>
   <g id="legend_2">
    <g id="text_14">
     <!-- As a percent of total allocation -->
     <g transform="translate(649.943846 503.208657) scale(0.1 -0.1)">
      <use xlink:href="#DejaVuSans-41"/>
      <use xlink:href="#DejaVuSans-73" transform="translate(68.408203 0)"/>
      <use xlink:href="#DejaVuSans-20" transform="translate(120.507812 0)"/>
      <use xlink:href="#DejaVuSans-61" transform="translate(152.294922 0)"/>
      <use xlink:href="#DejaVuSans-20" transform="translate(213.574219 0)"/>
      <use xlink:href="#DejaVuSans-70" transform="translate(245.361328 0)"/>
      <use xlink:href="#DejaVuSans-65" transform="translate(308.837891 0)"/>
      <use xlink:href="#DejaVuSans-72" transform="translate(370.361328 0)"/>
      <use xlink:href="#DejaVuSans-63" transform="translate(409.224609 0)"/>
      <use xlink:href="#DejaVuSans-65" transform="translate(464.205078 0)"/>
      <use xlink:href="#DejaVuSans-6e" transform="translate(525.728516 0)"/>
      <use xlink:href="#DejaVuSans-74" transform="translate(589.107422 0)"/>
      <use xlink:href="#DejaVuSans-20" transform="translate(628.316406 0)"/>
      <use xlink:href="#DejaVuSans-6f" transform="translate(660.103516 0)"/>
      <use xlink:href="#DejaVuSans-66" transform="translate(721.285156 0)"/>
      <use xlink:href="#DejaVuSans-20" transform="translate(756.490234 0)"/>
      <use xlink:href="#DejaVuSans-74" transform="translate(788.277344 0)"/>
      <use xlink:href="#DejaVuSans-6f" transform="translate(827.486328 0)"/>
      <use xlink:href="#DejaVuSans-74" transform="translate(888.667969 0)"/>
      <use xlink:href="#DejaVuSans-61" transform="translate(927.876953 0)"/>
      <use xlink:href="#DejaVuSans-6c" transform="translate(989.15625 0)"/>
      <use xlink:href="#DejaVuSans-20" transform="translate(1016.939453 0)"/>
      <use xlink:href="#DejaVuSans-61" transform="translate(1048.726562 0)"/>
      <use xlink:href="#DejaVuSans-6c" transform="translate(1110.005859 0)"/>
      <use xlink:href="#DejaVuSans-6c" transform="translate(1137.789062 0)"/>
      <use xlink:href="#DejaVuSans-6f" transform="translate(1165.572266 0)"/>
      <use xlink:href="#DejaVuSans-63" transform="translate(1226.753906 0)"/>
      <use xlink:href="#DejaVuSans-61" transform="translate(1281.734375 0)"/>
      <use xlink:href="#DejaVuSans-74" transform="translate(1343.013672 0)"/>
      <use xlink:href="#DejaVuSans-69" transform="translate(1382.222656 0)"/>
      <use xlink:href="#DejaVuSans-6f" transform="translate(1410.005859 0)"/>
      <use xlink:href="#DejaVuSans-6e" transform="translate(1471.1875 0)"/>
     </g>
    </g>
    <g id="patch_17">
     <path d="M 665.093846 517.886782 
L 685.093846 517.886782 
L 685.093846 510.886782 
L 665.093846 510.886782 
z
" style="fill: #1f77b4"/>
    </g>
    <g id="text_15">
     <!-- yliu6: 0.0% -->
     <g transform="translate(693.093846 517.886782) scale(0.1 -0.1)">
      <defs>
       <path id="DejaVuSans-79" d="M 2059 -325 
Q 1816 -950 1584 -1140 
Q 1353 -1331 966 -1331 
L 506 -1331 
L 506 -850 
L 844 -850 
Q 1081 -850 1212 -737 
Q 1344 -625 1503 -206 
L 1606 56 
L 191 3500 
L 800 3500 
L 1894 763 
L 2988 3500 
L 3597 3500 
L 2059 -325 
z
" transform="scale(0.015625)"/>
      </defs>
      <use xlink:href="#DejaVuSans-79"/>
      <use xlink:href="#DejaVuSans-6c" transform="translate(59.179688 0)"/>
      <use xlink:href="#DejaVuSans-69" transform="translate(86.962891 0)"/>
      <use xlink:href="#DejaVuSans-75" transform="translate(114.746094 0)"/>
      <use xlink:href="#DejaVuSans-36" transform="translate(178.125 0)"/>
      <use xlink:href="#DejaVuSans-3a" transform="translate(241.748047 0)"/>
      <use xlink:href="#DejaVuSans-20" transform="translate(275.439453 0)"/>
      <use xlink:href="#DejaVuSans-30" transform="translate(307.226562 0)"/>
      <use xlink:href="#DejaVuSans-2e" transform="translate(370.849609 0)"/>
      <use xlink:href="#DejaVuSans-30" transform="translate(402.636719 0)"/>
      <use xlink:href="#DejaVuSans-25" transform="translate(466.259766 0)"/>
     </g>
    </g>
    <g id="patch_18">
     <path d="M 665.093846 532.564907 
L 685.093846 532.564907 
L 685.093846 525.564907 
L 665.093846 525.564907 
z
" style="fill: #ff7f0e"/>
    </g>
    <g id="text_16">
     <!-- rmunaweera: 0.0% -->
     <g transform="translate(693.093846 532.564907) scale(0.1 -0.1)">
      <defs>
       <path id="DejaVuSans-77" d="M 269 3500 
L 844 3500 
L 1563 769 
L 2278 3500 
L 2956 3500 
L 3675 769 
L 4391 3500 
L 4966 3500 
L 4050 0 
L 3372 0 
L 2619 2869 
L 1863 0 
L 1184 0 
L 269 3500 
z
" transform="scale(0.015625)"/>
      </defs>
      <use xlink:href="#DejaVuSans-72"/>
      <use xlink:href="#DejaVuSans-6d" transform="translate(39.363281 0)"/>
      <use xlink:href="#DejaVuSans-75" transform="translate(136.775391 0)"/>
      <use xlink:href="#DejaVuSans-6e" transform="translate(200.154297 0)"/>
      <use xlink:href="#DejaVuSans-61" transform="translate(263.533203 0)"/>
      <use xlink:href="#DejaVuSans-77" transform="translate(324.8125 0)"/>
      <use xlink:href="#DejaVuSans-65" transform="translate(406.599609 0)"/>
      <use xlink:href="#DejaVuSans-65" transform="translate(468.123047 0)"/>
      <use xlink:href="#DejaVuSans-72" transform="translate(529.646484 0)"/>
      <use xlink:href="#DejaVuSans-61" transform="translate(570.759766 0)"/>
      <use xlink:href="#DejaVuSans-3a" transform="translate(632.039062 0)"/>
      <use xlink:href="#DejaVuSans-20" transform="translate(665.730469 0)"/>
      <use xlink:href="#DejaVuSans-30" transform="translate(697.517578 0)"/>
      <use xlink:href="#DejaVuSans-2e" transform="translate(761.140625 0)"/>
      <use xlink:href="#DejaVuSans-30" transform="translate(792.927734 0)"/>
      <use xlink:href="#DejaVuSans-25" transform="translate(856.550781 0)"/>
     </g>
    </g>
    <g id="patch_19">
     <path d="M 665.093846 547.243032 
L 685.093846 547.243032 
L 685.093846 540.243032 
L 665.093846 540.243032 
z
" style="fill: #2ca02c"/>
    </g>
    <g id="text_17">
     <!-- psutton: 1.6% -->
     <g transform="translate(693.093846 547.243032) scale(0.1 -0.1)">
      <use xlink:href="#DejaVuSans-70"/>
      <use xlink:href="#DejaVuSans-73" transform="translate(63.476562 0)"/>
      <use xlink:href="#DejaVuSans-75" transform="translate(115.576172 0)"/>
      <use xlink:href="#DejaVuSans-74" transform="translate(178.955078 0)"/>
      <use xlink:href="#DejaVuSans-74" transform="translate(218.164062 0)"/>
      <use xlink:href="#DejaVuSans-6f" transform="translate(257.373047 0)"/>
      <use xlink:href="#DejaVuSans-6e" transform="translate(318.554688 0)"/>
      <use xlink:href="#DejaVuSans-3a" transform="translate(381.933594 0)"/>
      <use xlink:href="#DejaVuSans-20" transform="translate(415.625 0)"/>
      <use xlink:href="#DejaVuSans-31" transform="translate(447.412109 0)"/>
      <use xlink:href="#DejaVuSans-2e" transform="translate(511.035156 0)"/>
      <use xlink:href="#DejaVuSans-36" transform="translate(542.822266 0)"/>
      <use xlink:href="#DejaVuSans-25" transform="translate(606.445312 0)"/>
     </g>
    </g>
    <g id="patch_20">
     <path d="M 665.093846 561.921157 
L 685.093846 561.921157 
L 685.093846 554.921157 
L 665.093846 554.921157 
z
" style="fill: #d62728"/>
    </g>
    <g id="text_18">
     <!-- yhao: 0.9% -->
     <g transform="translate(693.093846 561.921157) scale(0.1 -0.1)">
      <defs>
       <path id="DejaVuSans-68" d="M 3513 2113 
L 3513 0 
L 2938 0 
L 2938 2094 
Q 2938 2591 2744 2837 
Q 2550 3084 2163 3084 
Q 1697 3084 1428 2787 
Q 1159 2491 1159 1978 
L 1159 0 
L 581 0 
L 581 4863 
L 1159 4863 
L 1159 2956 
Q 1366 3272 1645 3428 
Q 1925 3584 2291 3584 
Q 2894 3584 3203 3211 
Q 3513 2838 3513 2113 
z
" transform="scale(0.015625)"/>
      </defs>
      <use xlink:href="#DejaVuSans-79"/>
      <use xlink:href="#DejaVuSans-68" transform="translate(59.179688 0)"/>
      <use xlink:href="#DejaVuSans-61" transform="translate(122.558594 0)"/>
      <use xlink:href="#DejaVuSans-6f" transform="translate(183.837891 0)"/>
      <use xlink:href="#DejaVuSans-3a" transform="translate(245.019531 0)"/>
      <use xlink:href="#DejaVuSans-20" transform="translate(278.710938 0)"/>
      <use xlink:href="#DejaVuSans-30" transform="translate(310.498047 0)"/>
      <use xlink:href="#DejaVuSans-2e" transform="translate(374.121094 0)"/>
      <use xlink:href="#DejaVuSans-39" transform="translate(405.908203 0)"/>
      <use xlink:href="#DejaVuSans-25" transform="translate(469.53125 0)"/>
     </g>
    </g>
    <g id="patch_21">
     <path d="M 665.093846 576.599282 
L 685.093846 576.599282 
L 685.093846 569.599282 
L 665.093846 569.599282 
z
" style="fill: #9467bd"/>
    </g>
    <g id="text_19">
     <!-- aks19: 75.5% -->
     <g transform="translate(693.093846 576.599282) scale(0.1 -0.1)">
      <use xlink:href="#DejaVuSans-61"/>
      <use xlink:href="#DejaVuSans-6b" transform="translate(61.279297 0)"/>
      <use xlink:href="#DejaVuSans-73" transform="translate(119.189453 0)"/>
      <use xlink:href="#DejaVuSans-31" transform="translate(171.289062 0)"/>
      <use xlink:href="#DejaVuSans-39" transform="translate(234.912109 0)"/>
      <use xlink:href="#DejaVuSans-3a" transform="translate(298.535156 0)"/>
      <use xlink:href="#DejaVuSans-20" transform="translate(332.226562 0)"/>
      <use xlink:href="#DejaVuSans-37" transform="translate(364.013672 0)"/>
      <use xlink:href="#DejaVuSans-35" transform="translate(427.636719 0)"/>
      <use xlink:href="#DejaVuSans-2e" transform="translate(491.259766 0)"/>
      <use xlink:href="#DejaVuSans-35" transform="translate(523.046875 0)"/>
      <use xlink:href="#DejaVuSans-25" transform="translate(586.669922 0)"/>
     </g>
    </g>
    <g id="patch_22">
     <path d="M 665.093846 591.277407 
L 685.093846 591.277407 
L 685.093846 584.277407 
L 665.093846 584.277407 
z
" style="fill: #8c564b"/>
    </g>
    <g id="text_20">
     <!-- yfu: 3.8% -->
     <g transform="translate(693.093846 591.277407) scale(0.1 -0.1)">
      <use xlink:href="#DejaVuSans-79"/>
      <use xlink:href="#DejaVuSans-66" transform="translate(59.179688 0)"/>
      <use xlink:href="#DejaVuSans-75" transform="translate(94.384766 0)"/>
      <use xlink:href="#DejaVuSans-3a" transform="translate(157.763672 0)"/>
      <use xlink:href="#DejaVuSans-20" transform="translate(191.455078 0)"/>
      <use xlink:href="#DejaVuSans-33" transform="translate(223.242188 0)"/>
      <use xlink:href="#DejaVuSans-2e" transform="translate(286.865234 0)"/>
      <use xlink:href="#DejaVuSans-38" transform="translate(318.652344 0)"/>
      <use xlink:href="#DejaVuSans-25" transform="translate(382.275391 0)"/>
     </g>
    </g>
    <g id="patch_23">
     <path d="M 665.093846 605.955532 
L 685.093846 605.955532 
L 685.093846 598.955532 
L 665.093846 598.955532 
z
" style="fill: #e377c2"/>
    </g>
    <g id="text_21">
     <!-- remaining: 18.2% -->
     <g transform="translate(693.093846 605.955532) scale(0.1 -0.1)">
      <use xlink:href="#DejaVuSans-72"/>
      <use xlink:href="#DejaVuSans-65" transform="translate(38.863281 0)"/>
      <use xlink:href="#DejaVuSans-6d" transform="translate(100.386719 0)"/>
      <use xlink:href="#DejaVuSans-61" transform="translate(197.798828 0)"/>
      <use xlink:href="#DejaVuSans-69" transform="translate(259.078125 0)"/>
      <use xlink:href="#DejaVuSans-6e" transform="translate(286.861328 0)"/>
      <use xlink:href="#DejaVuSans-69" transform="translate(350.240234 0)"/>
      <use xlink:href="#DejaVuSans-6e" transform="translate(378.023438 0)"/>
      <use xlink:href="#DejaVuSans-67" transform="translate(441.402344 0)"/>
      <use xlink:href="#DejaVuSans-3a" transform="translate(504.878906 0)"/>
      <use xlink:href="#DejaVuSans-20" transform="translate(538.570312 0)"/>
      <use xlink:href="#DejaVuSans-31" transform="translate(570.357422 0)"/>
      <use xlink:href="#DejaVuSans-38" transform="translate(633.980469 0)"/>
      <use xlink:href="#DejaVuSans-2e" transform="translate(697.603516 0)"/>
      <use xlink:href="#DejaVuSans-32" transform="translate(729.390625 0)"/>
      <use xlink:href="#DejaVuSans-25" transform="translate(793.013672 0)"/>
     </g>
    </g>
   </g>
  </g>
  <g id="axes_3">
   <g id="patch_24">
    <path d="M 1372.138735 261.18286 
C 1372.138735 260.616864 1372.13607 260.050871 1372.130741 259.484901 
C 1372.125412 258.91893 1372.117419 258.352987 1372.106761 257.787092 
L 1191.796847 261.18286 
z
" style="fill: #1f77b4"/>
   </g>
   <g id="patch_25">
    <path d="M 1372.106761 257.787092 
C 1371.729332 237.746168 1368.013293 217.907675 1361.11172 199.088817 
C 1354.210147 180.26996 1344.219125 162.732736 1331.550211 147.199555 
L 1191.796847 261.18286 
z
" style="fill: #ff7f0e"/>
   </g>
   <g id="patch_26">
    <path d="M 1331.550211 147.199555 
C 1324.390302 138.42089 1316.419141 130.336348 1307.742468 123.053176 
C 1299.065795 115.770004 1289.722147 109.320549 1279.835472 103.790367 
L 1191.796847 261.18286 
z
" style="fill: #2ca02c"/>
   </g>
   <g id="patch_27">
    <path d="M 1279.835472 103.790367 
C 1274.565362 100.842492 1269.150515 98.161173 1263.611401 95.756543 
C 1258.072287 93.351913 1252.415892 91.227007 1246.663596 89.389855 
L 1191.796847 261.18286 
z
" style="fill: #d62728"/>
   </g>
   <g id="patch_28">
    <path d="M 1246.663596 89.389855 
C 1241.990189 87.897276 1237.257823 86.59602 1232.478307 85.489333 
C 1227.698792 84.382647 1222.876108 83.471452 1218.022291 82.758022 
L 1191.796847 261.18286 
z
" style="fill: #9467bd"/>
   </g>
   <g id="patch_29">
    <path d="M 1218.022291 82.758022 
C 1199.928377 80.098522 1181.534735 80.206761 1163.473374 83.079021 
C 1145.412012 85.951281 1127.892191 91.554283 1111.515893 99.695507 
C 1095.139596 107.836732 1080.096559 118.421854 1066.903663 131.087167 
C 1053.710768 143.752481 1042.520867 158.351244 1033.718449 174.381843 
C 1024.91603 190.412441 1018.603078 207.689143 1014.996508 225.618317 
C 1011.389937 243.547492 1010.531534 261.921411 1012.450792 280.108745 
C 1014.37005 298.296079 1019.044733 316.086107 1026.314219 332.867562 
C 1033.583705 349.649017 1043.363769 365.227468 1055.318365 379.067637 
C 1067.272962 392.907806 1081.263585 404.849339 1096.809516 414.481925 
C 1112.355446 424.114511 1129.276567 431.326546 1146.991466 435.870222 
C 1164.706366 440.413898 1183.009798 442.236573 1201.272854 441.275619 
C 1219.535911 440.314665 1237.546994 436.581216 1254.687241 430.203553 
C 1271.827489 423.825891 1287.898312 414.877907 1302.347515 403.667056 
C 1316.796719 392.456205 1329.456893 379.112376 1339.893032 364.094066 
C 1350.329172 349.075755 1358.420363 332.556966 1363.888591 315.105286 
C 1369.356819 297.653606 1372.138729 279.471231 1372.138735 261.182911 
L 1191.796847 261.18286 
z
" style="fill: #8c564b"/>
   </g>
   <g id="matplotlib.axis_5"/>
   <g id="matplotlib.axis_6"/>
   <g id="text_22">
    <!-- yfu -->
    <g transform="translate(1378.043208 195.638788) scale(0.1 -0.1)">
     <use xlink:href="#DejaVuSans-79"/>
     <use xlink:href="#DejaVuSans-66" transform="translate(59.179688 0)"/>
     <use xlink:href="#DejaVuSans-75" transform="translate(94.384766 0)"/>
    </g>
   </g>
   <g id="text_23">
    <!-- 10.6% -->
    <g transform="translate(1277.502177 226.685809) scale(0.1 -0.1)">
     <use xlink:href="#DejaVuSans-31"/>
     <use xlink:href="#DejaVuSans-30" transform="translate(63.623047 0)"/>
     <use xlink:href="#DejaVuSans-2e" transform="translate(127.246094 0)"/>
     <use xlink:href="#DejaVuSans-36" transform="translate(159.033203 0)"/>
     <use xlink:href="#DejaVuSans-25" transform="translate(222.65625 0)"/>
    </g>
   </g>
   <g id="text_24">
    <!-- yhao -->
    <g transform="translate(1319.33703 111.999583) scale(0.1 -0.1)">
     <use xlink:href="#DejaVuSans-79"/>
     <use xlink:href="#DejaVuSans-68" transform="translate(59.179688 0)"/>
     <use xlink:href="#DejaVuSans-61" transform="translate(122.558594 0)"/>
     <use xlink:href="#DejaVuSans-6f" transform="translate(183.837891 0)"/>
    </g>
   </g>
   <g id="text_25">
    <!-- 6.0% -->
    <g transform="translate(1248.661876 181.064425) scale(0.1 -0.1)">
     <use xlink:href="#DejaVuSans-36"/>
     <use xlink:href="#DejaVuSans-2e" transform="translate(63.623047 0)"/>
     <use xlink:href="#DejaVuSans-30" transform="translate(95.410156 0)"/>
     <use xlink:href="#DejaVuSans-25" transform="translate(159.033203 0)"/>
    </g>
   </g>
   <g id="text_26">
    <!-- remaining -->
    <g transform="translate(991.183017 393.61549) scale(0.1 -0.1)">
     <use xlink:href="#DejaVuSans-72"/>
     <use xlink:href="#DejaVuSans-65" transform="translate(38.863281 0)"/>
     <use xlink:href="#DejaVuSans-6d" transform="translate(100.386719 0)"/>
     <use xlink:href="#DejaVuSans-61" transform="translate(197.798828 0)"/>
     <use xlink:href="#DejaVuSans-69" transform="translate(259.078125 0)"/>
     <use xlink:href="#DejaVuSans-6e" transform="translate(286.861328 0)"/>
     <use xlink:href="#DejaVuSans-69" transform="translate(350.240234 0)"/>
     <use xlink:href="#DejaVuSans-6e" transform="translate(378.023438 0)"/>
     <use xlink:href="#DejaVuSans-67" transform="translate(441.402344 0)"/>
    </g>
   </g>
   <g id="text_27">
    <!-- 77.3% -->
    <g transform="translate(1094.026164 334.673101) scale(0.1 -0.1)">
     <use xlink:href="#DejaVuSans-37"/>
     <use xlink:href="#DejaVuSans-37" transform="translate(63.623047 0)"/>
     <use xlink:href="#DejaVuSans-2e" transform="translate(127.246094 0)"/>
     <use xlink:href="#DejaVuSans-33" transform="translate(159.033203 0)"/>
     <use xlink:href="#DejaVuSans-25" transform="translate(222.65625 0)"/>
    </g>
   </g>
   <g id="text_28">
    <!-- $\mathbf{Setonix GPU}$  -->
    <g transform="translate(1150.096847 16.318125) scale(0.12 -0.12)">
     <use xlink:href="#DejaVuSans-Bold-53" transform="translate(0 0.015625)"/>
     <use xlink:href="#DejaVuSans-Bold-65" transform="translate(72.021484 0.015625)"/>
     <use xlink:href="#DejaVuSans-Bold-74" transform="translate(139.84375 0.015625)"/>
     <use xlink:href="#DejaVuSans-Bold-6f" transform="translate(187.646484 0.015625)"/>
     <use xlink:href="#DejaVuSans-Bold-6e" transform="translate(256.347656 0.015625)"/>
     <use xlink:href="#DejaVuSans-Bold-69" transform="translate(327.539062 0.015625)"/>
     <use xlink:href="#DejaVuSans-Bold-78" transform="translate(361.816406 0.015625)"/>
     <use xlink:href="#DejaVuSans-Bold-47" transform="translate(426.318359 0.015625)"/>
     <use xlink:href="#DejaVuSans-Bold-50" transform="translate(508.398438 0.015625)"/>
     <use xlink:href="#DejaVuSans-Bold-55" transform="translate(581.689453 0.015625)"/>
     <use xlink:href="#DejaVuSans-20" transform="translate(662.890625 0.015625)"/>
    </g>
    <!--  (as a percent of overall used) -->
    <g transform="translate(1101.612159 29.7555) scale(0.12 -0.12)">
     <use xlink:href="#DejaVuSans-20"/>
     <use xlink:href="#DejaVuSans-28" transform="translate(31.787109 0)"/>
     <use xlink:href="#DejaVuSans-61" transform="translate(70.800781 0)"/>
     <use xlink:href="#DejaVuSans-73" transform="translate(132.080078 0)"/>
     <use xlink:href="#DejaVuSans-20" transform="translate(184.179688 0)"/>
     <use xlink:href="#DejaVuSans-61" transform="translate(215.966797 0)"/>
     <use xlink:href="#DejaVuSans-20" transform="translate(277.246094 0)"/>
     <use xlink:href="#DejaVuSans-70" transform="translate(309.033203 0)"/>
     <use xlink:href="#DejaVuSans-65" transform="translate(372.509766 0)"/>
     <use xlink:href="#DejaVuSans-72" transform="translate(434.033203 0)"/>
     <use xlink:href="#DejaVuSans-63" transform="translate(472.896484 0)"/>
     <use xlink:href="#DejaVuSans-65" transform="translate(527.876953 0)"/>
     <use xlink:href="#DejaVuSans-6e" transform="translate(589.400391 0)"/>
     <use xlink:href="#DejaVuSans-74" transform="translate(652.779297 0)"/>
     <use xlink:href="#DejaVuSans-20" transform="translate(691.988281 0)"/>
     <use xlink:href="#DejaVuSans-6f" transform="translate(723.775391 0)"/>
     <use xlink:href="#DejaVuSans-66" transform="translate(784.957031 0)"/>
     <use xlink:href="#DejaVuSans-20" transform="translate(820.162109 0)"/>
     <use xlink:href="#DejaVuSans-6f" transform="translate(851.949219 0)"/>
     <use xlink:href="#DejaVuSans-76" transform="translate(913.130859 0)"/>
     <use xlink:href="#DejaVuSans-65" transform="translate(972.310547 0)"/>
     <use xlink:href="#DejaVuSans-72" transform="translate(1033.833984 0)"/>
     <use xlink:href="#DejaVuSans-61" transform="translate(1074.947266 0)"/>
     <use xlink:href="#DejaVuSans-6c" transform="translate(1136.226562 0)"/>
     <use xlink:href="#DejaVuSans-6c" transform="translate(1164.009766 0)"/>
     <use xlink:href="#DejaVuSans-20" transform="translate(1191.792969 0)"/>
     <use xlink:href="#DejaVuSans-75" transform="translate(1223.580078 0)"/>
     <use xlink:href="#DejaVuSans-73" transform="translate(1286.958984 0)"/>
     <use xlink:href="#DejaVuSans-65" transform="translate(1339.058594 0)"/>
     <use xlink:href="#DejaVuSans-64" transform="translate(1400.582031 0)"/>
     <use xlink:href="#DejaVuSans-29" transform="translate(1464.058594 0)"/>
    </g>
   </g>
   <g id="legend_3">
    <g id="text_29">
     <!-- As a percent of total allocation -->
     <g transform="translate(1119.513103 503.208657) scale(0.1 -0.1)">
      <use xlink:href="#DejaVuSans-41"/>
      <use xlink:href="#DejaVuSans-73" transform="translate(68.408203 0)"/>
      <use xlink:href="#DejaVuSans-20" transform="translate(120.507812 0)"/>
      <use xlink:href="#DejaVuSans-61" transform="translate(152.294922 0)"/>
      <use xlink:href="#DejaVuSans-20" transform="translate(213.574219 0)"/>
      <use xlink:href="#DejaVuSans-70" transform="translate(245.361328 0)"/>
      <use xlink:href="#DejaVuSans-65" transform="translate(308.837891 0)"/>
      <use xlink:href="#DejaVuSans-72" transform="translate(370.361328 0)"/>
      <use xlink:href="#DejaVuSans-63" transform="translate(409.224609 0)"/>
      <use xlink:href="#DejaVuSans-65" transform="translate(464.205078 0)"/>
      <use xlink:href="#DejaVuSans-6e" transform="translate(525.728516 0)"/>
      <use xlink:href="#DejaVuSans-74" transform="translate(589.107422 0)"/>
      <use xlink:href="#DejaVuSans-20" transform="translate(628.316406 0)"/>
      <use xlink:href="#DejaVuSans-6f" transform="translate(660.103516 0)"/>
      <use xlink:href="#DejaVuSans-66" transform="translate(721.285156 0)"/>
      <use xlink:href="#DejaVuSans-20" transform="translate(756.490234 0)"/>
      <use xlink:href="#DejaVuSans-74" transform="translate(788.277344 0)"/>
      <use xlink:href="#DejaVuSans-6f" transform="translate(827.486328 0)"/>
      <use xlink:href="#DejaVuSans-74" transform="translate(888.667969 0)"/>
      <use xlink:href="#DejaVuSans-61" transform="translate(927.876953 0)"/>
      <use xlink:href="#DejaVuSans-6c" transform="translate(989.15625 0)"/>
      <use xlink:href="#DejaVuSans-20" transform="translate(1016.939453 0)"/>
      <use xlink:href="#DejaVuSans-61" transform="translate(1048.726562 0)"/>
      <use xlink:href="#DejaVuSans-6c" transform="translate(1110.005859 0)"/>
      <use xlink:href="#DejaVuSans-6c" transform="translate(1137.789062 0)"/>
      <use xlink:href="#DejaVuSans-6f" transform="translate(1165.572266 0)"/>
      <use xlink:href="#DejaVuSans-63" transform="translate(1226.753906 0)"/>
      <use xlink:href="#DejaVuSans-61" transform="translate(1281.734375 0)"/>
      <use xlink:href="#DejaVuSans-74" transform="translate(1343.013672 0)"/>
      <use xlink:href="#DejaVuSans-69" transform="translate(1382.222656 0)"/>
      <use xlink:href="#DejaVuSans-6f" transform="translate(1410.005859 0)"/>
      <use xlink:href="#DejaVuSans-6e" transform="translate(1471.1875 0)"/>
     </g>
    </g>
    <g id="patch_30">
     <path d="M 1134.663103 517.886782 
L 1154.663103 517.886782 
L 1154.663103 510.886782 
L 1134.663103 510.886782 
z
" style="fill: #1f77b4"/>
    </g>
    <g id="text_30">
     <!-- rmunaweera: 0.3% -->
     <g transform="translate(1162.663103 517.886782) scale(0.1 -0.1)">
      <use xlink:href="#DejaVuSans-72"/>
      <use xlink:href="#DejaVuSans-6d" transform="translate(39.363281 0)"/>
      <use xlink:href="#DejaVuSans-75" transform="translate(136.775391 0)"/>
      <use xlink:href="#DejaVuSans-6e" transform="translate(200.154297 0)"/>
      <use xlink:href="#DejaVuSans-61" transform="translate(263.533203 0)"/>
      <use xlink:href="#DejaVuSans-77" transform="translate(324.8125 0)"/>
      <use xlink:href="#DejaVuSans-65" transform="translate(406.599609 0)"/>
      <use xlink:href="#DejaVuSans-65" transform="translate(468.123047 0)"/>
      <use xlink:href="#DejaVuSans-72" transform="translate(529.646484 0)"/>
      <use xlink:href="#DejaVuSans-61" transform="translate(570.759766 0)"/>
      <use xlink:href="#DejaVuSans-3a" transform="translate(632.039062 0)"/>
      <use xlink:href="#DejaVuSans-20" transform="translate(665.730469 0)"/>
      <use xlink:href="#DejaVuSans-30" transform="translate(697.517578 0)"/>
      <use xlink:href="#DejaVuSans-2e" transform="translate(761.140625 0)"/>
      <use xlink:href="#DejaVuSans-33" transform="translate(792.927734 0)"/>
      <use xlink:href="#DejaVuSans-25" transform="translate(856.550781 0)"/>
     </g>
    </g>
    <g id="patch_31">
     <path d="M 1134.663103 532.564907 
L 1154.663103 532.564907 
L 1154.663103 525.564907 
L 1134.663103 525.564907 
z
" style="fill: #ff7f0e"/>
    </g>
    <g id="text_31">
     <!-- yfu: 10.6% -->
     <g transform="translate(1162.663103 532.564907) scale(0.1 -0.1)">
      <use xlink:href="#DejaVuSans-79"/>
      <use xlink:href="#DejaVuSans-66" transform="translate(59.179688 0)"/>
      <use xlink:href="#DejaVuSans-75" transform="translate(94.384766 0)"/>
      <use xlink:href="#DejaVuSans-3a" transform="translate(157.763672 0)"/>
      <use xlink:href="#DejaVuSans-20" transform="translate(191.455078 0)"/>
      <use xlink:href="#DejaVuSans-31" transform="translate(223.242188 0)"/>
      <use xlink:href="#DejaVuSans-30" transform="translate(286.865234 0)"/>
      <use xlink:href="#DejaVuSans-2e" transform="translate(350.488281 0)"/>
      <use xlink:href="#DejaVuSans-36" transform="translate(382.275391 0)"/>
      <use xlink:href="#DejaVuSans-25" transform="translate(445.898438 0)"/>
     </g>
    </g>
    <g id="patch_32">
     <path d="M 1134.663103 547.243032 
L 1154.663103 547.243032 
L 1154.663103 540.243032 
L 1134.663103 540.243032 
z
" style="fill: #2ca02c"/>
    </g>
    <g id="text_32">
     <!-- yhao: 6.0% -->
     <g transform="translate(1162.663103 547.243032) scale(0.1 -0.1)">
      <use xlink:href="#DejaVuSans-79"/>
      <use xlink:href="#DejaVuSans-68" transform="translate(59.179688 0)"/>
      <use xlink:href="#DejaVuSans-61" transform="translate(122.558594 0)"/>
      <use xlink:href="#DejaVuSans-6f" transform="translate(183.837891 0)"/>
      <use xlink:href="#DejaVuSans-3a" transform="translate(245.019531 0)"/>
      <use xlink:href="#DejaVuSans-20" transform="translate(278.710938 0)"/>
      <use xlink:href="#DejaVuSans-36" transform="translate(310.498047 0)"/>
      <use xlink:href="#DejaVuSans-2e" transform="translate(374.121094 0)"/>
      <use xlink:href="#DejaVuSans-30" transform="translate(405.908203 0)"/>
      <use xlink:href="#DejaVuSans-25" transform="translate(469.53125 0)"/>
     </g>
    </g>
    <g id="patch_33">
     <path d="M 1134.663103 561.921157 
L 1154.663103 561.921157 
L 1154.663103 554.921157 
L 1134.663103 554.921157 
z
" style="fill: #d62728"/>
    </g>
    <g id="text_33">
     <!-- psutton: 3.2% -->
     <g transform="translate(1162.663103 561.921157) scale(0.1 -0.1)">
      <use xlink:href="#DejaVuSans-70"/>
      <use xlink:href="#DejaVuSans-73" transform="translate(63.476562 0)"/>
      <use xlink:href="#DejaVuSans-75" transform="translate(115.576172 0)"/>
      <use xlink:href="#DejaVuSans-74" transform="translate(178.955078 0)"/>
      <use xlink:href="#DejaVuSans-74" transform="translate(218.164062 0)"/>
      <use xlink:href="#DejaVuSans-6f" transform="translate(257.373047 0)"/>
      <use xlink:href="#DejaVuSans-6e" transform="translate(318.554688 0)"/>
      <use xlink:href="#DejaVuSans-3a" transform="translate(381.933594 0)"/>
      <use xlink:href="#DejaVuSans-20" transform="translate(415.625 0)"/>
      <use xlink:href="#DejaVuSans-33" transform="translate(447.412109 0)"/>
      <use xlink:href="#DejaVuSans-2e" transform="translate(511.035156 0)"/>
      <use xlink:href="#DejaVuSans-32" transform="translate(542.822266 0)"/>
      <use xlink:href="#DejaVuSans-25" transform="translate(606.445312 0)"/>
     </g>
    </g>
    <g id="patch_34">
     <path d="M 1134.663103 576.599282 
L 1154.663103 576.599282 
L 1154.663103 569.599282 
L 1134.663103 569.599282 
z
" style="fill: #9467bd"/>
    </g>
    <g id="text_34">
     <!-- aks19: 2.6% -->
     <g transform="translate(1162.663103 576.599282) scale(0.1 -0.1)">
      <use xlink:href="#DejaVuSans-61"/>
      <use xlink:href="#DejaVuSans-6b" transform="translate(61.279297 0)"/>
      <use xlink:href="#DejaVuSans-73" transform="translate(119.189453 0)"/>
      <use xlink:href="#DejaVuSans-31" transform="translate(171.289062 0)"/>
      <use xlink:href="#DejaVuSans-39" transform="translate(234.912109 0)"/>
      <use xlink:href="#DejaVuSans-3a" transform="translate(298.535156 0)"/>
      <use xlink:href="#DejaVuSans-20" transform="translate(332.226562 0)"/>
      <use xlink:href="#DejaVuSans-32" transform="translate(364.013672 0)"/>
      <use xlink:href="#DejaVuSans-2e" transform="translate(427.636719 0)"/>
      <use xlink:href="#DejaVuSans-36" transform="translate(459.423828 0)"/>
      <use xlink:href="#DejaVuSans-25" transform="translate(523.046875 0)"/>
     </g>
    </g>
    <g id="patch_35">
     <path d="M 1134.663103 591.277407 
L 1154.663103 591.277407 
L 1154.663103 584.277407 
L 1134.663103 584.277407 
z
" style="fill: #8c564b"/>
    </g>
    <g id="text_35">
     <!-- remaining: 77.4% -->
     <g transform="translate(1162.663103 591.277407) scale(0.1 -0.1)">
      <use xlink:href="#DejaVuSans-72"/>
      <use xlink:href="#DejaVuSans-65" transform="translate(38.863281 0)"/>
      <use xlink:href="#DejaVuSans-6d" transform="translate(100.386719 0)"/>
      <use xlink:href="#DejaVuSans-61" transform="translate(197.798828 0)"/>
      <use xlink:href="#DejaVuSans-69" transform="translate(259.078125 0)"/>
      <use xlink:href="#DejaVuSans-6e" transform="translate(286.861328 0)"/>
      <use xlink:href="#DejaVuSans-69" transform="translate(350.240234 0)"/>
      <use xlink:href="#DejaVuSans-6e" transform="translate(378.023438 0)"/>
      <use xlink:href="#DejaVuSans-67" transform="translate(441.402344 0)"/>
      <use xlink:href="#DejaVuSans-3a" transform="translate(504.878906 0)"/>
      <use xlink:href="#DejaVuSans-20" transform="translate(538.570312 0)"/>
      <use xlink:href="#DejaVuSans-37" transform="translate(570.357422 0)"/>
      <use xlink:href="#DejaVuSans-37" transform="translate(633.980469 0)"/>
      <use xlink:href="#DejaVuSans-2e" transform="translate(697.603516 0)"/>
      <use xlink:href="#DejaVuSans-34" transform="translate(729.390625 0)"/>
      <use xlink:href="#DejaVuSans-25" transform="translate(793.013672 0)"/>
     </g>
    </g>
   </g>
  </g>
 </g>
</svg>
