<?xml version="1.0" encoding="utf-8" standalone="no"?>
<!DOCTYPE svg PUBLIC "-//W3C//DTD SVG 1.1//EN"
  "http://www.w3.org/Graphics/SVG/1.1/DTD/svg11.dtd">
<svg xmlns:xlink="http://www.w3.org/1999/xlink" width="1425.912706pt" height="575.156486pt" viewBox="0 0 1425.912706 575.156486" xmlns="http://www.w3.org/2000/svg" version="1.1">
 <metadata>
  <rdf:RDF xmlns:dc="http://purl.org/dc/elements/1.1/" xmlns:cc="http://creativecommons.org/ns#" xmlns:rdf="http://www.w3.org/1999/02/22-rdf-syntax-ns#">
   <cc:Work>
    <dc:type rdf:resource="http://purl.org/dc/dcmitype/StillImage"/>
    <dc:date>2026-07-13T02:07:02.130116</dc:date>
    <dc:format>image/svg+xml</dc:format>
    <dc:creator>
     <cc:Agent>
      <dc:title>Matplotlib v3.10.1, https://matplotlib.org/</dc:title>
     </cc:Agent>
    </dc:creator>
   </cc:Work>
  </rdf:RDF>
 </metadata>
 <defs>
  <style type="text/css">*{stroke-linejoin: round; stroke-linecap: butt}</style>
 </defs>
 <g id="figure_1">
  <g id="patch_1">
   <path d="M 0 575.156486 
L 1425.912706 575.156486 
L 1425.912706 0 
L 0 0 
z
" style="fill: #ffffff"/>
  </g>
  <g id="axes_1">
   <g id="patch_2">
    <path d="M 422.741151 253.821618 
C 422.741151 250.712796 422.65805 247.60453 422.491938 244.500149 
C 422.325825 241.395769 422.076761 238.296383 421.745011 235.205313 
L 248.288257 253.821618 
z
" style="fill: #1f77b4"/>
   </g>
   <g id="patch_3">
    <path d="M 421.745011 235.205313 
C 421.47181 232.659775 421.142607 230.120559 420.757642 227.589511 
C 420.372677 225.058462 419.932042 222.536195 419.436058 220.024541 
L 248.288257 253.821618 
z
" style="fill: #ff7f0e"/>
   </g>
   <g id="patch_4">
    <path d="M 419.436058 220.024541 
C 419.223501 218.948154 419.000793 217.873795 418.767966 216.80161 
C 418.535139 215.729424 418.292202 214.659458 418.039188 213.591856 
L 248.288257 253.821618 
z
" style="fill: #2ca02c"/>
   </g>
   <g id="patch_5">
    <path d="M 418.039188 213.591856 
C 412.953095 192.130904 403.842996 171.82786 391.19272 153.761003 
C 378.542444 135.694146 362.579977 120.189078 344.153071 108.069261 
C 325.726166 95.949444 305.166914 87.433303 283.567201 82.973122 
C 261.967488 78.512942 239.716587 78.189105 217.996223 82.018809 
C 196.27586 85.848514 175.477483 93.76274 156.705675 105.341171 
C 137.933868 116.919601 121.526939 131.953569 108.356246 149.64463 
C 95.185553 167.335692 85.488461 187.365018 79.779974 208.668867 
C 74.071486 229.972715 72.454483 252.167147 75.014842 274.073433 
C 77.5752 295.979719 84.266777 317.203062 94.734189 336.616308 
C 105.201601 356.029553 119.256202 373.282834 136.151564 387.459841 
C 153.046927 401.636848 172.47856 412.482083 193.414466 419.419563 
C 214.350373 426.357044 236.413243 429.261742 258.431335 427.979392 
C 280.449427 426.697042 302.025929 421.250754 322.014931 411.929777 
C 342.003932 402.608799 360.045189 389.581116 375.180545 373.538615 
C 390.315901 357.496115 402.272585 338.727918 410.415586 318.230789 
C 418.558588 297.733659 422.741154 275.876998 422.741151 253.821595 
L 248.288257 253.821618 
z
" style="fill: #d62728"/>
   </g>
   <g id="matplotlib.axis_1"/>
   <g id="matplotlib.axis_2"/>
   <g id="text_1">
    <!-- remaining -->
    <g transform="translate(7.2 278.85799) scale(0.1 -0.1)">
     <defs>
      <path id="DejaVuSans-72" d="M 2631 2963 
Q 2534 3019 2420 3045 
Q 2306 3072 2169 3072 
Q 1681 3072 1420 2755 
Q 1159 2438 1159 1844 
L 1159 0 
L 581 0 
L 581 3500 
L 1159 3500 
L 1159 2956 
Q 1341 3275 1631 3429 
Q 1922 3584 2338 3584 
Q 2397 3584 2469 3576 
Q 2541 3569 2628 3553 
L 2631 2963 
z
" transform="scale(0.015625)"/>
      <path id="DejaVuSans-65" d="M 3597 1894 
L 3597 1613 
L 953 1613 
Q 991 1019 1311 708 
Q 1631 397 2203 397 
Q 2534 397 2845 478 
Q 3156 559 3463 722 
L 3463 178 
Q 3153 47 2828 -22 
Q 2503 -91 2169 -91 
Q 1331 -91 842 396 
Q 353 884 353 1716 
Q 353 2575 817 3079 
Q 1281 3584 2069 3584 
Q 2775 3584 3186 3129 
Q 3597 2675 3597 1894 
z
M 3022 2063 
Q 3016 2534 2758 2815 
Q 2500 3097 2075 3097 
Q 1594 3097 1305 2825 
Q 1016 2553 972 2059 
L 3022 2063 
z
" transform="scale(0.015625)"/>
      <path id="DejaVuSans-6d" d="M 3328 2828 
Q 3544 3216 3844 3400 
Q 4144 3584 4550 3584 
Q 5097 3584 5394 3201 
Q 5691 2819 5691 2113 
L 5691 0 
L 5113 0 
L 5113 2094 
Q 5113 2597 4934 2840 
Q 4756 3084 4391 3084 
Q 3944 3084 3684 2787 
Q 3425 2491 3425 1978 
L 3425 0 
L 2847 0 
L 2847 2094 
Q 2847 2600 2669 2842 
Q 2491 3084 2119 3084 
Q 1678 3084 1418 2786 
Q 1159 2488 1159 1978 
L 1159 0 
L 581 0 
L 581 3500 
L 1159 3500 
L 1159 2956 
Q 1356 3278 1631 3431 
Q 1906 3584 2284 3584 
Q 2666 3584 2933 3390 
Q 3200 3197 3328 2828 
z
" transform="scale(0.015625)"/>
      <path id="DejaVuSans-61" d="M 2194 1759 
Q 1497 1759 1228 1600 
Q 959 1441 959 1056 
Q 959 750 1161 570 
Q 1363 391 1709 391 
Q 2188 391 2477 730 
Q 2766 1069 2766 1631 
L 2766 1759 
L 2194 1759 
z
M 3341 1997 
L 3341 0 
L 2766 0 
L 2766 531 
Q 2569 213 2275 61 
Q 1981 -91 1556 -91 
Q 1019 -91 701 211 
Q 384 513 384 1019 
Q 384 1609 779 1909 
Q 1175 2209 1959 2209 
L 2766 2209 
L 2766 2266 
Q 2766 2663 2505 2880 
Q 2244 3097 1772 3097 
Q 1472 3097 1187 3025 
Q 903 2953 641 2809 
L 641 3341 
Q 956 3463 1253 3523 
Q 1550 3584 1831 3584 
Q 2591 3584 2966 3190 
Q 3341 2797 3341 1997 
z
" transform="scale(0.015625)"/>
      <path id="DejaVuSans-69" d="M 603 3500 
L 1178 3500 
L 1178 0 
L 603 0 
L 603 3500 
z
M 603 4863 
L 1178 4863 
L 1178 4134 
L 603 4134 
L 603 4863 
z
" transform="scale(0.015625)"/>
      <path id="DejaVuSans-6e" d="M 3513 2113 
L 3513 0 
L 2938 0 
L 2938 2094 
Q 2938 2591 2744 2837 
Q 2550 3084 2163 3084 
Q 1697 3084 1428 2787 
Q 1159 2491 1159 1978 
L 1159 0 
L 581 0 
L 581 3500 
L 1159 3500 
L 1159 2956 
Q 1366 3272 1645 3428 
Q 1925 3584 2291 3584 
Q 2894 3584 3203 3211 
Q 3513 2838 3513 2113 
z
" transform="scale(0.015625)"/>
      <path id="DejaVuSans-67" d="M 2906 1791 
Q 2906 2416 2648 2759 
Q 2391 3103 1925 3103 
Q 1463 3103 1205 2759 
Q 947 2416 947 1791 
Q 947 1169 1205 825 
Q 1463 481 1925 481 
Q 2391 481 2648 825 
Q 2906 1169 2906 1791 
z
M 3481 434 
Q 3481 -459 3084 -895 
Q 2688 -1331 1869 -1331 
Q 1566 -1331 1297 -1286 
Q 1028 -1241 775 -1147 
L 775 -588 
Q 1028 -725 1275 -790 
Q 1522 -856 1778 -856 
Q 2344 -856 2625 -561 
Q 2906 -266 2906 331 
L 2906 616 
Q 2728 306 2450 153 
Q 2172 0 1784 0 
Q 1141 0 747 490 
Q 353 981 353 1791 
Q 353 2603 747 3093 
Q 1141 3584 1784 3584 
Q 2172 3584 2450 3431 
Q 2728 3278 2906 2969 
L 2906 3500 
L 3481 3500 
L 3481 434 
z
" transform="scale(0.015625)"/>
     </defs>
     <use xlink:href="#DejaVuSans-72"/>
     <use xlink:href="#DejaVuSans-65" transform="translate(38.863281 0)"/>
     <use xlink:href="#DejaVuSans-6d" transform="translate(100.386719 0)"/>
     <use xlink:href="#DejaVuSans-61" transform="translate(197.798828 0)"/>
     <use xlink:href="#DejaVuSans-69" transform="translate(259.078125 0)"/>
     <use xlink:href="#DejaVuSans-6e" transform="translate(286.861328 0)"/>
     <use xlink:href="#DejaVuSans-69" transform="translate(350.240234 0)"/>
     <use xlink:href="#DejaVuSans-6e" transform="translate(378.023438 0)"/>
     <use xlink:href="#DejaVuSans-67" transform="translate(441.402344 0)"/>
    </g>
   </g>
   <g id="text_2">
    <!-- 96.3% -->
    <g transform="translate(128.440614 268.732082) scale(0.1 -0.1)">
     <defs>
      <path id="DejaVuSans-39" d="M 703 97 
L 703 672 
Q 941 559 1184 500 
Q 1428 441 1663 441 
Q 2288 441 2617 861 
Q 2947 1281 2994 2138 
Q 2813 1869 2534 1725 
Q 2256 1581 1919 1581 
Q 1219 1581 811 2004 
Q 403 2428 403 3163 
Q 403 3881 828 4315 
Q 1253 4750 1959 4750 
Q 2769 4750 3195 4129 
Q 3622 3509 3622 2328 
Q 3622 1225 3098 567 
Q 2575 -91 1691 -91 
Q 1453 -91 1209 -44 
Q 966 3 703 97 
z
M 1959 2075 
Q 2384 2075 2632 2365 
Q 2881 2656 2881 3163 
Q 2881 3666 2632 3958 
Q 2384 4250 1959 4250 
Q 1534 4250 1286 3958 
Q 1038 3666 1038 3163 
Q 1038 2656 1286 2365 
Q 1534 2075 1959 2075 
z
" transform="scale(0.015625)"/>
      <path id="DejaVuSans-36" d="M 2113 2584 
Q 1688 2584 1439 2293 
Q 1191 2003 1191 1497 
Q 1191 994 1439 701 
Q 1688 409 2113 409 
Q 2538 409 2786 701 
Q 3034 994 3034 1497 
Q 3034 2003 2786 2293 
Q 2538 2584 2113 2584 
z
M 3366 4563 
L 3366 3988 
Q 3128 4100 2886 4159 
Q 2644 4219 2406 4219 
Q 1781 4219 1451 3797 
Q 1122 3375 1075 2522 
Q 1259 2794 1537 2939 
Q 1816 3084 2150 3084 
Q 2853 3084 3261 2657 
Q 3669 2231 3669 1497 
Q 3669 778 3244 343 
Q 2819 -91 2113 -91 
Q 1303 -91 875 529 
Q 447 1150 447 2328 
Q 447 3434 972 4092 
Q 1497 4750 2381 4750 
Q 2619 4750 2861 4703 
Q 3103 4656 3366 4563 
z
" transform="scale(0.015625)"/>
      <path id="DejaVuSans-2e" d="M 684 794 
L 1344 794 
L 1344 0 
L 684 0 
L 684 794 
z
" transform="scale(0.015625)"/>
      <path id="DejaVuSans-33" d="M 2597 2516 
Q 3050 2419 3304 2112 
Q 3559 1806 3559 1356 
Q 3559 666 3084 287 
Q 2609 -91 1734 -91 
Q 1441 -91 1130 -33 
Q 819 25 488 141 
L 488 750 
Q 750 597 1062 519 
Q 1375 441 1716 441 
Q 2309 441 2620 675 
Q 2931 909 2931 1356 
Q 2931 1769 2642 2001 
Q 2353 2234 1838 2234 
L 1294 2234 
L 1294 2753 
L 1863 2753 
Q 2328 2753 2575 2939 
Q 2822 3125 2822 3475 
Q 2822 3834 2567 4026 
Q 2313 4219 1838 4219 
Q 1578 4219 1281 4162 
Q 984 4106 628 3988 
L 628 4550 
Q 988 4650 1302 4700 
Q 1616 4750 1894 4750 
Q 2613 4750 3031 4423 
Q 3450 4097 3450 3541 
Q 3450 3153 3228 2886 
Q 3006 2619 2597 2516 
z
" transform="scale(0.015625)"/>
      <path id="DejaVuSans-25" d="M 4653 2053 
Q 4381 2053 4226 1822 
Q 4072 1591 4072 1178 
Q 4072 772 4226 539 
Q 4381 306 4653 306 
Q 4919 306 5073 539 
Q 5228 772 5228 1178 
Q 5228 1588 5073 1820 
Q 4919 2053 4653 2053 
z
M 4653 2450 
Q 5147 2450 5437 2106 
Q 5728 1763 5728 1178 
Q 5728 594 5436 251 
Q 5144 -91 4653 -91 
Q 4153 -91 3862 251 
Q 3572 594 3572 1178 
Q 3572 1766 3864 2108 
Q 4156 2450 4653 2450 
z
M 1428 4353 
Q 1159 4353 1004 4120 
Q 850 3888 850 3481 
Q 850 3069 1003 2837 
Q 1156 2606 1428 2606 
Q 1700 2606 1854 2837 
Q 2009 3069 2009 3481 
Q 2009 3884 1853 4118 
Q 1697 4353 1428 4353 
z
M 4250 4750 
L 4750 4750 
L 1831 -91 
L 1331 -91 
L 4250 4750 
z
M 1428 4750 
Q 1922 4750 2215 4408 
Q 2509 4066 2509 3481 
Q 2509 2891 2217 2550 
Q 1925 2209 1428 2209 
Q 931 2209 642 2551 
Q 353 2894 353 3481 
Q 353 4063 643 4406 
Q 934 4750 1428 4750 
z
" transform="scale(0.015625)"/>
     </defs>
     <use xlink:href="#DejaVuSans-39"/>
     <use xlink:href="#DejaVuSans-36" transform="translate(63.623047 0)"/>
     <use xlink:href="#DejaVuSans-2e" transform="translate(127.246094 0)"/>
     <use xlink:href="#DejaVuSans-33" transform="translate(159.033203 0)"/>
     <use xlink:href="#DejaVuSans-25" transform="translate(222.65625 0)"/>
    </g>
   </g>
   <g id="text_3">
    <!-- $\mathbf{Gadi}$  -->
    <g transform="translate(231.008257 16.318125) scale(0.12 -0.12)">
     <defs>
      <path id="DejaVuSans-Bold-47" d="M 4781 347 
Q 4331 128 3847 18 
Q 3363 -91 2847 -91 
Q 1681 -91 1000 561 
Q 319 1213 319 2328 
Q 319 3456 1012 4103 
Q 1706 4750 2913 4750 
Q 3378 4750 3804 4662 
Q 4231 4575 4609 4403 
L 4609 3438 
Q 4219 3659 3833 3768 
Q 3447 3878 3059 3878 
Q 2341 3878 1952 3476 
Q 1563 3075 1563 2328 
Q 1563 1588 1938 1184 
Q 2313 781 3003 781 
Q 3191 781 3352 804 
Q 3513 828 3641 878 
L 3641 1784 
L 2906 1784 
L 2906 2591 
L 4781 2591 
L 4781 347 
z
" transform="scale(0.015625)"/>
      <path id="DejaVuSans-Bold-61" d="M 2106 1575 
Q 1756 1575 1579 1456 
Q 1403 1338 1403 1106 
Q 1403 894 1545 773 
Q 1688 653 1941 653 
Q 2256 653 2472 879 
Q 2688 1106 2688 1447 
L 2688 1575 
L 2106 1575 
z
M 3816 1997 
L 3816 0 
L 2688 0 
L 2688 519 
Q 2463 200 2181 54 
Q 1900 -91 1497 -91 
Q 953 -91 614 226 
Q 275 544 275 1050 
Q 275 1666 698 1953 
Q 1122 2241 2028 2241 
L 2688 2241 
L 2688 2328 
Q 2688 2594 2478 2717 
Q 2269 2841 1825 2841 
Q 1466 2841 1156 2769 
Q 847 2697 581 2553 
L 581 3406 
Q 941 3494 1303 3539 
Q 1666 3584 2028 3584 
Q 2975 3584 3395 3211 
Q 3816 2838 3816 1997 
z
" transform="scale(0.015625)"/>
      <path id="DejaVuSans-Bold-64" d="M 2919 2988 
L 2919 4863 
L 4044 4863 
L 4044 0 
L 2919 0 
L 2919 506 
Q 2688 197 2409 53 
Q 2131 -91 1766 -91 
Q 1119 -91 703 423 
Q 288 938 288 1747 
Q 288 2556 703 3070 
Q 1119 3584 1766 3584 
Q 2128 3584 2408 3439 
Q 2688 3294 2919 2988 
z
M 2181 722 
Q 2541 722 2730 984 
Q 2919 1247 2919 1747 
Q 2919 2247 2730 2509 
Q 2541 2772 2181 2772 
Q 1825 2772 1636 2509 
Q 1447 2247 1447 1747 
Q 1447 1247 1636 984 
Q 1825 722 2181 722 
z
" transform="scale(0.015625)"/>
      <path id="DejaVuSans-Bold-69" d="M 538 3500 
L 1656 3500 
L 1656 0 
L 538 0 
L 538 3500 
z
M 538 4863 
L 1656 4863 
L 1656 3950 
L 538 3950 
L 538 4863 
z
" transform="scale(0.015625)"/>
      <path id="DejaVuSans-20" transform="scale(0.015625)"/>
     </defs>
     <use xlink:href="#DejaVuSans-Bold-47" transform="translate(0 0.015625)"/>
     <use xlink:href="#DejaVuSans-Bold-61" transform="translate(82.080078 0.015625)"/>
     <use xlink:href="#DejaVuSans-Bold-64" transform="translate(149.560547 0.015625)"/>
     <use xlink:href="#DejaVuSans-Bold-69" transform="translate(221.142578 0.015625)"/>
     <use xlink:href="#DejaVuSans-20" transform="translate(255.419922 0.015625)"/>
    </g>
    <!--  (as a percent of overall used) -->
    <g transform="translate(158.103569 29.7555) scale(0.12 -0.12)">
     <defs>
      <path id="DejaVuSans-28" d="M 1984 4856 
Q 1566 4138 1362 3434 
Q 1159 2731 1159 2009 
Q 1159 1288 1364 580 
Q 1569 -128 1984 -844 
L 1484 -844 
Q 1016 -109 783 600 
Q 550 1309 550 2009 
Q 550 2706 781 3412 
Q 1013 4119 1484 4856 
L 1984 4856 
z
" transform="scale(0.015625)"/>
      <path id="DejaVuSans-73" d="M 2834 3397 
L 2834 2853 
Q 2591 2978 2328 3040 
Q 2066 3103 1784 3103 
Q 1356 3103 1142 2972 
Q 928 2841 928 2578 
Q 928 2378 1081 2264 
Q 1234 2150 1697 2047 
L 1894 2003 
Q 2506 1872 2764 1633 
Q 3022 1394 3022 966 
Q 3022 478 2636 193 
Q 2250 -91 1575 -91 
Q 1294 -91 989 -36 
Q 684 19 347 128 
L 347 722 
Q 666 556 975 473 
Q 1284 391 1588 391 
Q 1994 391 2212 530 
Q 2431 669 2431 922 
Q 2431 1156 2273 1281 
Q 2116 1406 1581 1522 
L 1381 1569 
Q 847 1681 609 1914 
Q 372 2147 372 2553 
Q 372 3047 722 3315 
Q 1072 3584 1716 3584 
Q 2034 3584 2315 3537 
Q 2597 3491 2834 3397 
z
" transform="scale(0.015625)"/>
      <path id="DejaVuSans-70" d="M 1159 525 
L 1159 -1331 
L 581 -1331 
L 581 3500 
L 1159 3500 
L 1159 2969 
Q 1341 3281 1617 3432 
Q 1894 3584 2278 3584 
Q 2916 3584 3314 3078 
Q 3713 2572 3713 1747 
Q 3713 922 3314 415 
Q 2916 -91 2278 -91 
Q 1894 -91 1617 61 
Q 1341 213 1159 525 
z
M 3116 1747 
Q 3116 2381 2855 2742 
Q 2594 3103 2138 3103 
Q 1681 3103 1420 2742 
Q 1159 2381 1159 1747 
Q 1159 1113 1420 752 
Q 1681 391 2138 391 
Q 2594 391 2855 752 
Q 3116 1113 3116 1747 
z
" transform="scale(0.015625)"/>
      <path id="DejaVuSans-63" d="M 3122 3366 
L 3122 2828 
Q 2878 2963 2633 3030 
Q 2388 3097 2138 3097 
Q 1578 3097 1268 2742 
Q 959 2388 959 1747 
Q 959 1106 1268 751 
Q 1578 397 2138 397 
Q 2388 397 2633 464 
Q 2878 531 3122 666 
L 3122 134 
Q 2881 22 2623 -34 
Q 2366 -91 2075 -91 
Q 1284 -91 818 406 
Q 353 903 353 1747 
Q 353 2603 823 3093 
Q 1294 3584 2113 3584 
Q 2378 3584 2631 3529 
Q 2884 3475 3122 3366 
z
" transform="scale(0.015625)"/>
      <path id="DejaVuSans-74" d="M 1172 4494 
L 1172 3500 
L 2356 3500 
L 2356 3053 
L 1172 3053 
L 1172 1153 
Q 1172 725 1289 603 
Q 1406 481 1766 481 
L 2356 481 
L 2356 0 
L 1766 0 
Q 1100 0 847 248 
Q 594 497 594 1153 
L 594 3053 
L 172 3053 
L 172 3500 
L 594 3500 
L 594 4494 
L 1172 4494 
z
" transform="scale(0.015625)"/>
      <path id="DejaVuSans-6f" d="M 1959 3097 
Q 1497 3097 1228 2736 
Q 959 2375 959 1747 
Q 959 1119 1226 758 
Q 1494 397 1959 397 
Q 2419 397 2687 759 
Q 2956 1122 2956 1747 
Q 2956 2369 2687 2733 
Q 2419 3097 1959 3097 
z
M 1959 3584 
Q 2709 3584 3137 3096 
Q 3566 2609 3566 1747 
Q 3566 888 3137 398 
Q 2709 -91 1959 -91 
Q 1206 -91 779 398 
Q 353 888 353 1747 
Q 353 2609 779 3096 
Q 1206 3584 1959 3584 
z
" transform="scale(0.015625)"/>
      <path id="DejaVuSans-66" d="M 2375 4863 
L 2375 4384 
L 1825 4384 
Q 1516 4384 1395 4259 
Q 1275 4134 1275 3809 
L 1275 3500 
L 2222 3500 
L 2222 3053 
L 1275 3053 
L 1275 0 
L 697 0 
L 697 3053 
L 147 3053 
L 147 3500 
L 697 3500 
L 697 3744 
Q 697 4328 969 4595 
Q 1241 4863 1831 4863 
L 2375 4863 
z
" transform="scale(0.015625)"/>
      <path id="DejaVuSans-76" d="M 191 3500 
L 800 3500 
L 1894 563 
L 2988 3500 
L 3597 3500 
L 2284 0 
L 1503 0 
L 191 3500 
z
" transform="scale(0.015625)"/>
      <path id="DejaVuSans-6c" d="M 603 4863 
L 1178 4863 
L 1178 0 
L 603 0 
L 603 4863 
z
" transform="scale(0.015625)"/>
      <path id="DejaVuSans-75" d="M 544 1381 
L 544 3500 
L 1119 3500 
L 1119 1403 
Q 1119 906 1312 657 
Q 1506 409 1894 409 
Q 2359 409 2629 706 
Q 2900 1003 2900 1516 
L 2900 3500 
L 3475 3500 
L 3475 0 
L 2900 0 
L 2900 538 
Q 2691 219 2414 64 
Q 2138 -91 1772 -91 
Q 1169 -91 856 284 
Q 544 659 544 1381 
z
M 1991 3584 
L 1991 3584 
z
" transform="scale(0.015625)"/>
      <path id="DejaVuSans-64" d="M 2906 2969 
L 2906 4863 
L 3481 4863 
L 3481 0 
L 2906 0 
L 2906 525 
Q 2725 213 2448 61 
Q 2172 -91 1784 -91 
Q 1150 -91 751 415 
Q 353 922 353 1747 
Q 353 2572 751 3078 
Q 1150 3584 1784 3584 
Q 2172 3584 2448 3432 
Q 2725 3281 2906 2969 
z
M 947 1747 
Q 947 1113 1208 752 
Q 1469 391 1925 391 
Q 2381 391 2643 752 
Q 2906 1113 2906 1747 
Q 2906 2381 2643 2742 
Q 2381 3103 1925 3103 
Q 1469 3103 1208 2742 
Q 947 2381 947 1747 
z
" transform="scale(0.015625)"/>
      <path id="DejaVuSans-29" d="M 513 4856 
L 1013 4856 
Q 1481 4119 1714 3412 
Q 1947 2706 1947 2009 
Q 1947 1309 1714 600 
Q 1481 -109 1013 -844 
L 513 -844 
Q 928 -128 1133 580 
Q 1338 1288 1338 2009 
Q 1338 2731 1133 3434 
Q 928 4138 513 4856 
z
" transform="scale(0.015625)"/>
     </defs>
     <use xlink:href="#DejaVuSans-20"/>
     <use xlink:href="#DejaVuSans-28" transform="translate(31.787109 0)"/>
     <use xlink:href="#DejaVuSans-61" transform="translate(70.800781 0)"/>
     <use xlink:href="#DejaVuSans-73" transform="translate(132.080078 0)"/>
     <use xlink:href="#DejaVuSans-20" transform="translate(184.179688 0)"/>
     <use xlink:href="#DejaVuSans-61" transform="translate(215.966797 0)"/>
     <use xlink:href="#DejaVuSans-20" transform="translate(277.246094 0)"/>
     <use xlink:href="#DejaVuSans-70" transform="translate(309.033203 0)"/>
     <use xlink:href="#DejaVuSans-65" transform="translate(372.509766 0)"/>
     <use xlink:href="#DejaVuSans-72" transform="translate(434.033203 0)"/>
     <use xlink:href="#DejaVuSans-63" transform="translate(472.896484 0)"/>
     <use xlink:href="#DejaVuSans-65" transform="translate(527.876953 0)"/>
     <use xlink:href="#DejaVuSans-6e" transform="translate(589.400391 0)"/>
     <use xlink:href="#DejaVuSans-74" transform="translate(652.779297 0)"/>
     <use xlink:href="#DejaVuSans-20" transform="translate(691.988281 0)"/>
     <use xlink:href="#DejaVuSans-6f" transform="translate(723.775391 0)"/>
     <use xlink:href="#DejaVuSans-66" transform="translate(784.957031 0)"/>
     <use xlink:href="#DejaVuSans-20" transform="translate(820.162109 0)"/>
     <use xlink:href="#DejaVuSans-6f" transform="translate(851.949219 0)"/>
     <use xlink:href="#DejaVuSans-76" transform="translate(913.130859 0)"/>
     <use xlink:href="#DejaVuSans-65" transform="translate(972.310547 0)"/>
     <use xlink:href="#DejaVuSans-72" transform="translate(1033.833984 0)"/>
     <use xlink:href="#DejaVuSans-61" transform="translate(1074.947266 0)"/>
     <use xlink:href="#DejaVuSans-6c" transform="translate(1136.226562 0)"/>
     <use xlink:href="#DejaVuSans-6c" transform="translate(1164.009766 0)"/>
     <use xlink:href="#DejaVuSans-20" transform="translate(1191.792969 0)"/>
     <use xlink:href="#DejaVuSans-75" transform="translate(1223.580078 0)"/>
     <use xlink:href="#DejaVuSans-73" transform="translate(1286.958984 0)"/>
     <use xlink:href="#DejaVuSans-65" transform="translate(1339.058594 0)"/>
     <use xlink:href="#DejaVuSans-64" transform="translate(1400.582031 0)"/>
     <use xlink:href="#DejaVuSans-29" transform="translate(1464.058594 0)"/>
    </g>
   </g>
   <g id="legend_1">
    <g id="text_4">
     <!-- As a percent of total allocation -->
     <g transform="translate(173.060016 488.486174) scale(0.1 -0.1)">
      <defs>
       <path id="DejaVuSans-41" d="M 2188 4044 
L 1331 1722 
L 3047 1722 
L 2188 4044 
z
M 1831 4666 
L 2547 4666 
L 4325 0 
L 3669 0 
L 3244 1197 
L 1141 1197 
L 716 0 
L 50 0 
L 1831 4666 
z
" transform="scale(0.015625)"/>
      </defs>
      <use xlink:href="#DejaVuSans-41"/>
      <use xlink:href="#DejaVuSans-73" transform="translate(68.408203 0)"/>
      <use xlink:href="#DejaVuSans-20" transform="translate(120.507812 0)"/>
      <use xlink:href="#DejaVuSans-61" transform="translate(152.294922 0)"/>
      <use xlink:href="#DejaVuSans-20" transform="translate(213.574219 0)"/>
      <use xlink:href="#DejaVuSans-70" transform="translate(245.361328 0)"/>
      <use xlink:href="#DejaVuSans-65" transform="translate(308.837891 0)"/>
      <use xlink:href="#DejaVuSans-72" transform="translate(370.361328 0)"/>
      <use xlink:href="#DejaVuSans-63" transform="translate(409.224609 0)"/>
      <use xlink:href="#DejaVuSans-65" transform="translate(464.205078 0)"/>
      <use xlink:href="#DejaVuSans-6e" transform="translate(525.728516 0)"/>
      <use xlink:href="#DejaVuSans-74" transform="translate(589.107422 0)"/>
      <use xlink:href="#DejaVuSans-20" transform="translate(628.316406 0)"/>
      <use xlink:href="#DejaVuSans-6f" transform="translate(660.103516 0)"/>
      <use xlink:href="#DejaVuSans-66" transform="translate(721.285156 0)"/>
      <use xlink:href="#DejaVuSans-20" transform="translate(756.490234 0)"/>
      <use xlink:href="#DejaVuSans-74" transform="translate(788.277344 0)"/>
      <use xlink:href="#DejaVuSans-6f" transform="translate(827.486328 0)"/>
      <use xlink:href="#DejaVuSans-74" transform="translate(888.667969 0)"/>
      <use xlink:href="#DejaVuSans-61" transform="translate(927.876953 0)"/>
      <use xlink:href="#DejaVuSans-6c" transform="translate(989.15625 0)"/>
      <use xlink:href="#DejaVuSans-20" transform="translate(1016.939453 0)"/>
      <use xlink:href="#DejaVuSans-61" transform="translate(1048.726562 0)"/>
      <use xlink:href="#DejaVuSans-6c" transform="translate(1110.005859 0)"/>
      <use xlink:href="#DejaVuSans-6c" transform="translate(1137.789062 0)"/>
      <use xlink:href="#DejaVuSans-6f" transform="translate(1165.572266 0)"/>
      <use xlink:href="#DejaVuSans-63" transform="translate(1226.753906 0)"/>
      <use xlink:href="#DejaVuSans-61" transform="translate(1281.734375 0)"/>
      <use xlink:href="#DejaVuSans-74" transform="translate(1343.013672 0)"/>
      <use xlink:href="#DejaVuSans-69" transform="translate(1382.222656 0)"/>
      <use xlink:href="#DejaVuSans-6f" transform="translate(1410.005859 0)"/>
      <use xlink:href="#DejaVuSans-6e" transform="translate(1471.1875 0)"/>
     </g>
    </g>
    <g id="patch_6">
     <path d="M 191.386579 503.164299 
L 211.386579 503.164299 
L 211.386579 496.164299 
L 191.386579 496.164299 
z
" style="fill: #1f77b4"/>
    </g>
    <g id="text_5">
     <!-- am8223: 1.7% -->
     <g transform="translate(219.386579 503.164299) scale(0.1 -0.1)">
      <defs>
       <path id="DejaVuSans-38" d="M 2034 2216 
Q 1584 2216 1326 1975 
Q 1069 1734 1069 1313 
Q 1069 891 1326 650 
Q 1584 409 2034 409 
Q 2484 409 2743 651 
Q 3003 894 3003 1313 
Q 3003 1734 2745 1975 
Q 2488 2216 2034 2216 
z
M 1403 2484 
Q 997 2584 770 2862 
Q 544 3141 544 3541 
Q 544 4100 942 4425 
Q 1341 4750 2034 4750 
Q 2731 4750 3128 4425 
Q 3525 4100 3525 3541 
Q 3525 3141 3298 2862 
Q 3072 2584 2669 2484 
Q 3125 2378 3379 2068 
Q 3634 1759 3634 1313 
Q 3634 634 3220 271 
Q 2806 -91 2034 -91 
Q 1263 -91 848 271 
Q 434 634 434 1313 
Q 434 1759 690 2068 
Q 947 2378 1403 2484 
z
M 1172 3481 
Q 1172 3119 1398 2916 
Q 1625 2713 2034 2713 
Q 2441 2713 2670 2916 
Q 2900 3119 2900 3481 
Q 2900 3844 2670 4047 
Q 2441 4250 2034 4250 
Q 1625 4250 1398 4047 
Q 1172 3844 1172 3481 
z
" transform="scale(0.015625)"/>
       <path id="DejaVuSans-32" d="M 1228 531 
L 3431 531 
L 3431 0 
L 469 0 
L 469 531 
Q 828 903 1448 1529 
Q 2069 2156 2228 2338 
Q 2531 2678 2651 2914 
Q 2772 3150 2772 3378 
Q 2772 3750 2511 3984 
Q 2250 4219 1831 4219 
Q 1534 4219 1204 4116 
Q 875 4013 500 3803 
L 500 4441 
Q 881 4594 1212 4672 
Q 1544 4750 1819 4750 
Q 2544 4750 2975 4387 
Q 3406 4025 3406 3419 
Q 3406 3131 3298 2873 
Q 3191 2616 2906 2266 
Q 2828 2175 2409 1742 
Q 1991 1309 1228 531 
z
" transform="scale(0.015625)"/>
       <path id="DejaVuSans-3a" d="M 750 794 
L 1409 794 
L 1409 0 
L 750 0 
L 750 794 
z
M 750 3309 
L 1409 3309 
L 1409 2516 
L 750 2516 
L 750 3309 
z
" transform="scale(0.015625)"/>
       <path id="DejaVuSans-31" d="M 794 531 
L 1825 531 
L 1825 4091 
L 703 3866 
L 703 4441 
L 1819 4666 
L 2450 4666 
L 2450 531 
L 3481 531 
L 3481 0 
L 794 0 
L 794 531 
z
" transform="scale(0.015625)"/>
       <path id="DejaVuSans-37" d="M 525 4666 
L 3525 4666 
L 3525 4397 
L 1831 0 
L 1172 0 
L 2766 4134 
L 525 4134 
L 525 4666 
z
" transform="scale(0.015625)"/>
      </defs>
      <use xlink:href="#DejaVuSans-61"/>
      <use xlink:href="#DejaVuSans-6d" transform="translate(61.279297 0)"/>
      <use xlink:href="#DejaVuSans-38" transform="translate(158.691406 0)"/>
      <use xlink:href="#DejaVuSans-32" transform="translate(222.314453 0)"/>
      <use xlink:href="#DejaVuSans-32" transform="translate(285.9375 0)"/>
      <use xlink:href="#DejaVuSans-33" transform="translate(349.560547 0)"/>
      <use xlink:href="#DejaVuSans-3a" transform="translate(413.183594 0)"/>
      <use xlink:href="#DejaVuSans-20" transform="translate(446.875 0)"/>
      <use xlink:href="#DejaVuSans-31" transform="translate(478.662109 0)"/>
      <use xlink:href="#DejaVuSans-2e" transform="translate(542.285156 0)"/>
      <use xlink:href="#DejaVuSans-37" transform="translate(574.072266 0)"/>
      <use xlink:href="#DejaVuSans-25" transform="translate(637.695312 0)"/>
     </g>
    </g>
    <g id="patch_7">
     <path d="M 191.386579 517.842424 
L 211.386579 517.842424 
L 211.386579 510.842424 
L 191.386579 510.842424 
z
" style="fill: #ff7f0e"/>
    </g>
    <g id="text_6">
     <!-- aq8103: 1.4% -->
     <g transform="translate(219.386579 517.842424) scale(0.1 -0.1)">
      <defs>
       <path id="DejaVuSans-71" d="M 947 1747 
Q 947 1113 1208 752 
Q 1469 391 1925 391 
Q 2381 391 2643 752 
Q 2906 1113 2906 1747 
Q 2906 2381 2643 2742 
Q 2381 3103 1925 3103 
Q 1469 3103 1208 2742 
Q 947 2381 947 1747 
z
M 2906 525 
Q 2725 213 2448 61 
Q 2172 -91 1784 -91 
Q 1150 -91 751 415 
Q 353 922 353 1747 
Q 353 2572 751 3078 
Q 1150 3584 1784 3584 
Q 2172 3584 2448 3432 
Q 2725 3281 2906 2969 
L 2906 3500 
L 3481 3500 
L 3481 -1331 
L 2906 -1331 
L 2906 525 
z
" transform="scale(0.015625)"/>
       <path id="DejaVuSans-30" d="M 2034 4250 
Q 1547 4250 1301 3770 
Q 1056 3291 1056 2328 
Q 1056 1369 1301 889 
Q 1547 409 2034 409 
Q 2525 409 2770 889 
Q 3016 1369 3016 2328 
Q 3016 3291 2770 3770 
Q 2525 4250 2034 4250 
z
M 2034 4750 
Q 2819 4750 3233 4129 
Q 3647 3509 3647 2328 
Q 3647 1150 3233 529 
Q 2819 -91 2034 -91 
Q 1250 -91 836 529 
Q 422 1150 422 2328 
Q 422 3509 836 4129 
Q 1250 4750 2034 4750 
z
" transform="scale(0.015625)"/>
       <path id="DejaVuSans-34" d="M 2419 4116 
L 825 1625 
L 2419 1625 
L 2419 4116 
z
M 2253 4666 
L 3047 4666 
L 3047 1625 
L 3713 1625 
L 3713 1100 
L 3047 1100 
L 3047 0 
L 2419 0 
L 2419 1100 
L 313 1100 
L 313 1709 
L 2253 4666 
z
" transform="scale(0.015625)"/>
      </defs>
      <use xlink:href="#DejaVuSans-61"/>
      <use xlink:href="#DejaVuSans-71" transform="translate(61.279297 0)"/>
      <use xlink:href="#DejaVuSans-38" transform="translate(124.755859 0)"/>
      <use xlink:href="#DejaVuSans-31" transform="translate(188.378906 0)"/>
      <use xlink:href="#DejaVuSans-30" transform="translate(252.001953 0)"/>
      <use xlink:href="#DejaVuSans-33" transform="translate(315.625 0)"/>
      <use xlink:href="#DejaVuSans-3a" transform="translate(379.248047 0)"/>
      <use xlink:href="#DejaVuSans-20" transform="translate(412.939453 0)"/>
      <use xlink:href="#DejaVuSans-31" transform="translate(444.726562 0)"/>
      <use xlink:href="#DejaVuSans-2e" transform="translate(508.349609 0)"/>
      <use xlink:href="#DejaVuSans-34" transform="translate(540.136719 0)"/>
      <use xlink:href="#DejaVuSans-25" transform="translate(603.759766 0)"/>
     </g>
    </g>
    <g id="patch_8">
     <path d="M 191.386579 532.520549 
L 211.386579 532.520549 
L 211.386579 525.520549 
L 191.386579 525.520549 
z
" style="fill: #2ca02c"/>
    </g>
    <g id="text_7">
     <!-- vr5686: 0.6% -->
     <g transform="translate(219.386579 532.520549) scale(0.1 -0.1)">
      <defs>
       <path id="DejaVuSans-35" d="M 691 4666 
L 3169 4666 
L 3169 4134 
L 1269 4134 
L 1269 2991 
Q 1406 3038 1543 3061 
Q 1681 3084 1819 3084 
Q 2600 3084 3056 2656 
Q 3513 2228 3513 1497 
Q 3513 744 3044 326 
Q 2575 -91 1722 -91 
Q 1428 -91 1123 -41 
Q 819 9 494 109 
L 494 744 
Q 775 591 1075 516 
Q 1375 441 1709 441 
Q 2250 441 2565 725 
Q 2881 1009 2881 1497 
Q 2881 1984 2565 2268 
Q 2250 2553 1709 2553 
Q 1456 2553 1204 2497 
Q 953 2441 691 2322 
L 691 4666 
z
" transform="scale(0.015625)"/>
      </defs>
      <use xlink:href="#DejaVuSans-76"/>
      <use xlink:href="#DejaVuSans-72" transform="translate(59.179688 0)"/>
      <use xlink:href="#DejaVuSans-35" transform="translate(100.292969 0)"/>
      <use xlink:href="#DejaVuSans-36" transform="translate(163.916016 0)"/>
      <use xlink:href="#DejaVuSans-38" transform="translate(227.539062 0)"/>
      <use xlink:href="#DejaVuSans-36" transform="translate(291.162109 0)"/>
      <use xlink:href="#DejaVuSans-3a" transform="translate(354.785156 0)"/>
      <use xlink:href="#DejaVuSans-20" transform="translate(388.476562 0)"/>
      <use xlink:href="#DejaVuSans-30" transform="translate(420.263672 0)"/>
      <use xlink:href="#DejaVuSans-2e" transform="translate(483.886719 0)"/>
      <use xlink:href="#DejaVuSans-36" transform="translate(515.673828 0)"/>
      <use xlink:href="#DejaVuSans-25" transform="translate(579.296875 0)"/>
     </g>
    </g>
    <g id="patch_9">
     <path d="M 191.386579 547.198674 
L 211.386579 547.198674 
L 211.386579 540.198674 
L 191.386579 540.198674 
z
" style="fill: #d62728"/>
    </g>
    <g id="text_8">
     <!-- remaining: 96.2% -->
     <g transform="translate(219.386579 547.198674) scale(0.1 -0.1)">
      <use xlink:href="#DejaVuSans-72"/>
      <use xlink:href="#DejaVuSans-65" transform="translate(38.863281 0)"/>
      <use xlink:href="#DejaVuSans-6d" transform="translate(100.386719 0)"/>
      <use xlink:href="#DejaVuSans-61" transform="translate(197.798828 0)"/>
      <use xlink:href="#DejaVuSans-69" transform="translate(259.078125 0)"/>
      <use xlink:href="#DejaVuSans-6e" transform="translate(286.861328 0)"/>
      <use xlink:href="#DejaVuSans-69" transform="translate(350.240234 0)"/>
      <use xlink:href="#DejaVuSans-6e" transform="translate(378.023438 0)"/>
      <use xlink:href="#DejaVuSans-67" transform="translate(441.402344 0)"/>
      <use xlink:href="#DejaVuSans-3a" transform="translate(504.878906 0)"/>
      <use xlink:href="#DejaVuSans-20" transform="translate(538.570312 0)"/>
      <use xlink:href="#DejaVuSans-39" transform="translate(570.357422 0)"/>
      <use xlink:href="#DejaVuSans-36" transform="translate(633.980469 0)"/>
      <use xlink:href="#DejaVuSans-2e" transform="translate(697.603516 0)"/>
      <use xlink:href="#DejaVuSans-32" transform="translate(729.390625 0)"/>
      <use xlink:href="#DejaVuSans-25" transform="translate(793.013672 0)"/>
     </g>
    </g>
   </g>
  </g>
  <g id="axes_2">
   <g id="patch_10">
    <path d="M 898.920317 253.821618 
C 898.920317 253.821618 898.920317 253.821618 898.920317 253.821618 
L 724.467422 253.821618 
z
" style="fill: #1f77b4"/>
   </g>
   <g id="patch_11">
    <path d="M 898.920317 253.821618 
C 898.920317 252.179054 898.897118 250.536571 898.850729 248.894662 
C 898.804339 247.252752 898.734762 245.61158 898.642019 243.971636 
L 724.467422 253.821618 
z
" style="fill: #ff7f0e"/>
   </g>
   <g id="patch_12">
    <path d="M 898.642019 243.971636 
C 896.822216 211.792534 886.119792 180.738584 867.727615 154.270979 
C 849.335437 127.803375 823.963187 106.943398 794.438792 94.016049 
C 764.914396 81.0887 732.377086 76.592795 700.453388 81.029435 
C 668.52969 85.466075 638.451414 98.664069 613.57101 119.152401 
L 724.467422 253.821618 
z
" style="fill: #2ca02c"/>
   </g>
   <g id="patch_13">
    <path d="M 613.57101 119.152401 
C 613.148356 119.500445 612.727342 119.850477 612.307984 120.202485 
C 611.888626 120.554493 611.470927 120.908473 611.054901 121.264414 
L 724.467422 253.821618 
z
" style="fill: #d62728"/>
   </g>
   <g id="patch_14">
    <path d="M 611.054901 121.264414 
C 588.821436 140.286792 571.727067 164.60069 561.351141 191.959748 
C 550.975215 219.318805 547.64743 248.853682 551.675239 277.835652 
C 555.703049 306.817623 566.958469 334.325778 584.401611 357.818642 
C 601.844754 381.311505 624.921359 400.042586 651.499381 412.281321 
C 678.077403 424.520055 707.312319 429.877554 736.503116 427.858839 
C 765.693914 425.840125 793.913048 416.509341 818.553357 400.728559 
C 843.193665 384.947777 863.472195 363.218435 877.515414 337.548105 
C 891.558634 311.877775 898.920316 283.082137 898.920317 253.82162 
L 724.467422 253.821618 
z
" style="fill: #9467bd"/>
   </g>
   <g id="matplotlib.axis_3"/>
   <g id="matplotlib.axis_4"/>
   <g id="text_9">
    <!-- aks19 -->
    <g transform="translate(801.435928 80.794867) scale(0.1 -0.1)">
     <defs>
      <path id="DejaVuSans-6b" d="M 581 4863 
L 1159 4863 
L 1159 1991 
L 2875 3500 
L 3609 3500 
L 1753 1863 
L 3688 0 
L 2938 0 
L 1159 1709 
L 1159 0 
L 581 0 
L 581 4863 
z
" transform="scale(0.015625)"/>
     </defs>
     <use xlink:href="#DejaVuSans-61"/>
     <use xlink:href="#DejaVuSans-6b" transform="translate(61.279297 0)"/>
     <use xlink:href="#DejaVuSans-73" transform="translate(119.189453 0)"/>
     <use xlink:href="#DejaVuSans-31" transform="translate(171.289062 0)"/>
     <use xlink:href="#DejaVuSans-39" transform="translate(234.912109 0)"/>
    </g>
   </g>
   <g id="text_10">
    <!-- 35.1% -->
    <g transform="translate(750.56665 160.697652) scale(0.1 -0.1)">
     <use xlink:href="#DejaVuSans-33"/>
     <use xlink:href="#DejaVuSans-35" transform="translate(63.623047 0)"/>
     <use xlink:href="#DejaVuSans-2e" transform="translate(127.246094 0)"/>
     <use xlink:href="#DejaVuSans-31" transform="translate(159.033203 0)"/>
     <use xlink:href="#DejaVuSans-25" transform="translate(222.65625 0)"/>
    </g>
   </g>
   <g id="text_11">
    <!-- remaining -->
    <g transform="translate(593.715077 430.886666) scale(0.1 -0.1)">
     <use xlink:href="#DejaVuSans-72"/>
     <use xlink:href="#DejaVuSans-65" transform="translate(38.863281 0)"/>
     <use xlink:href="#DejaVuSans-6d" transform="translate(100.386719 0)"/>
     <use xlink:href="#DejaVuSans-61" transform="translate(197.798828 0)"/>
     <use xlink:href="#DejaVuSans-69" transform="translate(259.078125 0)"/>
     <use xlink:href="#DejaVuSans-6e" transform="translate(286.861328 0)"/>
     <use xlink:href="#DejaVuSans-69" transform="translate(350.240234 0)"/>
     <use xlink:href="#DejaVuSans-6e" transform="translate(378.023438 0)"/>
     <use xlink:href="#DejaVuSans-67" transform="translate(441.402344 0)"/>
    </g>
   </g>
   <g id="text_12">
    <!-- 63.7% -->
    <g transform="translate(664.803004 351.656815) scale(0.1 -0.1)">
     <use xlink:href="#DejaVuSans-36"/>
     <use xlink:href="#DejaVuSans-33" transform="translate(63.623047 0)"/>
     <use xlink:href="#DejaVuSans-2e" transform="translate(127.246094 0)"/>
     <use xlink:href="#DejaVuSans-37" transform="translate(159.033203 0)"/>
     <use xlink:href="#DejaVuSans-25" transform="translate(222.65625 0)"/>
    </g>
   </g>
   <g id="text_13">
    <!-- $\mathbf{Setonix CPU}$  -->
    <g transform="translate(683.307422 16.318125) scale(0.12 -0.12)">
     <defs>
      <path id="DejaVuSans-Bold-53" d="M 3834 4519 
L 3834 3531 
Q 3450 3703 3084 3790 
Q 2719 3878 2394 3878 
Q 1963 3878 1756 3759 
Q 1550 3641 1550 3391 
Q 1550 3203 1689 3098 
Q 1828 2994 2194 2919 
L 2706 2816 
Q 3484 2659 3812 2340 
Q 4141 2022 4141 1434 
Q 4141 663 3683 286 
Q 3225 -91 2284 -91 
Q 1841 -91 1394 -6 
Q 947 78 500 244 
L 500 1259 
Q 947 1022 1364 901 
Q 1781 781 2169 781 
Q 2563 781 2772 912 
Q 2981 1044 2981 1288 
Q 2981 1506 2839 1625 
Q 2697 1744 2272 1838 
L 1806 1941 
Q 1106 2091 782 2419 
Q 459 2747 459 3303 
Q 459 4000 909 4375 
Q 1359 4750 2203 4750 
Q 2588 4750 2994 4692 
Q 3400 4634 3834 4519 
z
" transform="scale(0.015625)"/>
      <path id="DejaVuSans-Bold-65" d="M 4031 1759 
L 4031 1441 
L 1416 1441 
Q 1456 1047 1700 850 
Q 1944 653 2381 653 
Q 2734 653 3104 758 
Q 3475 863 3866 1075 
L 3866 213 
Q 3469 63 3072 -14 
Q 2675 -91 2278 -91 
Q 1328 -91 801 392 
Q 275 875 275 1747 
Q 275 2603 792 3093 
Q 1309 3584 2216 3584 
Q 3041 3584 3536 3087 
Q 4031 2591 4031 1759 
z
M 2881 2131 
Q 2881 2450 2695 2645 
Q 2509 2841 2209 2841 
Q 1884 2841 1681 2658 
Q 1478 2475 1428 2131 
L 2881 2131 
z
" transform="scale(0.015625)"/>
      <path id="DejaVuSans-Bold-74" d="M 1759 4494 
L 1759 3500 
L 2913 3500 
L 2913 2700 
L 1759 2700 
L 1759 1216 
Q 1759 972 1856 886 
Q 1953 800 2241 800 
L 2816 800 
L 2816 0 
L 1856 0 
Q 1194 0 917 276 
Q 641 553 641 1216 
L 641 2700 
L 84 2700 
L 84 3500 
L 641 3500 
L 641 4494 
L 1759 4494 
z
" transform="scale(0.015625)"/>
      <path id="DejaVuSans-Bold-6f" d="M 2203 2784 
Q 1831 2784 1636 2517 
Q 1441 2250 1441 1747 
Q 1441 1244 1636 976 
Q 1831 709 2203 709 
Q 2569 709 2762 976 
Q 2956 1244 2956 1747 
Q 2956 2250 2762 2517 
Q 2569 2784 2203 2784 
z
M 2203 3584 
Q 3106 3584 3614 3096 
Q 4122 2609 4122 1747 
Q 4122 884 3614 396 
Q 3106 -91 2203 -91 
Q 1297 -91 786 396 
Q 275 884 275 1747 
Q 275 2609 786 3096 
Q 1297 3584 2203 3584 
z
" transform="scale(0.015625)"/>
      <path id="DejaVuSans-Bold-6e" d="M 4056 2131 
L 4056 0 
L 2931 0 
L 2931 347 
L 2931 1631 
Q 2931 2084 2911 2256 
Q 2891 2428 2841 2509 
Q 2775 2619 2662 2680 
Q 2550 2741 2406 2741 
Q 2056 2741 1856 2470 
Q 1656 2200 1656 1722 
L 1656 0 
L 538 0 
L 538 3500 
L 1656 3500 
L 1656 2988 
Q 1909 3294 2193 3439 
Q 2478 3584 2822 3584 
Q 3428 3584 3742 3212 
Q 4056 2841 4056 2131 
z
" transform="scale(0.015625)"/>
      <path id="DejaVuSans-Bold-78" d="M 1422 1791 
L 159 3500 
L 1344 3500 
L 2059 2463 
L 2784 3500 
L 3969 3500 
L 2706 1797 
L 4031 0 
L 2847 0 
L 2059 1106 
L 1281 0 
L 97 0 
L 1422 1791 
z
" transform="scale(0.015625)"/>
      <path id="DejaVuSans-Bold-43" d="M 4288 256 
Q 3956 84 3597 -3 
Q 3238 -91 2847 -91 
Q 1681 -91 1000 561 
Q 319 1213 319 2328 
Q 319 3447 1000 4098 
Q 1681 4750 2847 4750 
Q 3238 4750 3597 4662 
Q 3956 4575 4288 4403 
L 4288 3438 
Q 3953 3666 3628 3772 
Q 3303 3878 2944 3878 
Q 2300 3878 1931 3465 
Q 1563 3053 1563 2328 
Q 1563 1606 1931 1193 
Q 2300 781 2944 781 
Q 3303 781 3628 887 
Q 3953 994 4288 1222 
L 4288 256 
z
" transform="scale(0.015625)"/>
      <path id="DejaVuSans-Bold-50" d="M 588 4666 
L 2584 4666 
Q 3475 4666 3951 4270 
Q 4428 3875 4428 3144 
Q 4428 2409 3951 2014 
Q 3475 1619 2584 1619 
L 1791 1619 
L 1791 0 
L 588 0 
L 588 4666 
z
M 1791 3794 
L 1791 2491 
L 2456 2491 
Q 2806 2491 2997 2661 
Q 3188 2831 3188 3144 
Q 3188 3456 2997 3625 
Q 2806 3794 2456 3794 
L 1791 3794 
z
" transform="scale(0.015625)"/>
      <path id="DejaVuSans-Bold-55" d="M 588 4666 
L 1791 4666 
L 1791 1869 
Q 1791 1291 1980 1042 
Q 2169 794 2597 794 
Q 3028 794 3217 1042 
Q 3406 1291 3406 1869 
L 3406 4666 
L 4609 4666 
L 4609 1869 
Q 4609 878 4112 393 
Q 3616 -91 2597 -91 
Q 1581 -91 1084 393 
Q 588 878 588 1869 
L 588 4666 
z
" transform="scale(0.015625)"/>
     </defs>
     <use xlink:href="#DejaVuSans-Bold-53" transform="translate(0 0.015625)"/>
     <use xlink:href="#DejaVuSans-Bold-65" transform="translate(72.021484 0.015625)"/>
     <use xlink:href="#DejaVuSans-Bold-74" transform="translate(139.84375 0.015625)"/>
     <use xlink:href="#DejaVuSans-Bold-6f" transform="translate(187.646484 0.015625)"/>
     <use xlink:href="#DejaVuSans-Bold-6e" transform="translate(256.347656 0.015625)"/>
     <use xlink:href="#DejaVuSans-Bold-69" transform="translate(327.539062 0.015625)"/>
     <use xlink:href="#DejaVuSans-Bold-78" transform="translate(361.816406 0.015625)"/>
     <use xlink:href="#DejaVuSans-Bold-43" transform="translate(426.318359 0.015625)"/>
     <use xlink:href="#DejaVuSans-Bold-50" transform="translate(499.707031 0.015625)"/>
     <use xlink:href="#DejaVuSans-Bold-55" transform="translate(572.998047 0.015625)"/>
     <use xlink:href="#DejaVuSans-20" transform="translate(654.199219 0.015625)"/>
    </g>
    <!--  (as a percent of overall used) -->
    <g transform="translate(634.282735 29.7555) scale(0.12 -0.12)">
     <use xlink:href="#DejaVuSans-20"/>
     <use xlink:href="#DejaVuSans-28" transform="translate(31.787109 0)"/>
     <use xlink:href="#DejaVuSans-61" transform="translate(70.800781 0)"/>
     <use xlink:href="#DejaVuSans-73" transform="translate(132.080078 0)"/>
     <use xlink:href="#DejaVuSans-20" transform="translate(184.179688 0)"/>
     <use xlink:href="#DejaVuSans-61" transform="translate(215.966797 0)"/>
     <use xlink:href="#DejaVuSans-20" transform="translate(277.246094 0)"/>
     <use xlink:href="#DejaVuSans-70" transform="translate(309.033203 0)"/>
     <use xlink:href="#DejaVuSans-65" transform="translate(372.509766 0)"/>
     <use xlink:href="#DejaVuSans-72" transform="translate(434.033203 0)"/>
     <use xlink:href="#DejaVuSans-63" transform="translate(472.896484 0)"/>
     <use xlink:href="#DejaVuSans-65" transform="translate(527.876953 0)"/>
     <use xlink:href="#DejaVuSans-6e" transform="translate(589.400391 0)"/>
     <use xlink:href="#DejaVuSans-74" transform="translate(652.779297 0)"/>
     <use xlink:href="#DejaVuSans-20" transform="translate(691.988281 0)"/>
     <use xlink:href="#DejaVuSans-6f" transform="translate(723.775391 0)"/>
     <use xlink:href="#DejaVuSans-66" transform="translate(784.957031 0)"/>
     <use xlink:href="#DejaVuSans-20" transform="translate(820.162109 0)"/>
     <use xlink:href="#DejaVuSans-6f" transform="translate(851.949219 0)"/>
     <use xlink:href="#DejaVuSans-76" transform="translate(913.130859 0)"/>
     <use xlink:href="#DejaVuSans-65" transform="translate(972.310547 0)"/>
     <use xlink:href="#DejaVuSans-72" transform="translate(1033.833984 0)"/>
     <use xlink:href="#DejaVuSans-61" transform="translate(1074.947266 0)"/>
     <use xlink:href="#DejaVuSans-6c" transform="translate(1136.226562 0)"/>
     <use xlink:href="#DejaVuSans-6c" transform="translate(1164.009766 0)"/>
     <use xlink:href="#DejaVuSans-20" transform="translate(1191.792969 0)"/>
     <use xlink:href="#DejaVuSans-75" transform="translate(1223.580078 0)"/>
     <use xlink:href="#DejaVuSans-73" transform="translate(1286.958984 0)"/>
     <use xlink:href="#DejaVuSans-65" transform="translate(1339.058594 0)"/>
     <use xlink:href="#DejaVuSans-64" transform="translate(1400.582031 0)"/>
     <use xlink:href="#DejaVuSans-29" transform="translate(1464.058594 0)"/>
    </g>
   </g>
   <g id="legend_2">
    <g id="text_14">
     <!-- As a percent of total allocation -->
     <g transform="translate(649.239182 488.486174) scale(0.1 -0.1)">
      <use xlink:href="#DejaVuSans-41"/>
      <use xlink:href="#DejaVuSans-73" transform="translate(68.408203 0)"/>
      <use xlink:href="#DejaVuSans-20" transform="translate(120.507812 0)"/>
      <use xlink:href="#DejaVuSans-61" transform="translate(152.294922 0)"/>
      <use xlink:href="#DejaVuSans-20" transform="translate(213.574219 0)"/>
      <use xlink:href="#DejaVuSans-70" transform="translate(245.361328 0)"/>
      <use xlink:href="#DejaVuSans-65" transform="translate(308.837891 0)"/>
      <use xlink:href="#DejaVuSans-72" transform="translate(370.361328 0)"/>
      <use xlink:href="#DejaVuSans-63" transform="translate(409.224609 0)"/>
      <use xlink:href="#DejaVuSans-65" transform="translate(464.205078 0)"/>
      <use xlink:href="#DejaVuSans-6e" transform="translate(525.728516 0)"/>
      <use xlink:href="#DejaVuSans-74" transform="translate(589.107422 0)"/>
      <use xlink:href="#DejaVuSans-20" transform="translate(628.316406 0)"/>
      <use xlink:href="#DejaVuSans-6f" transform="translate(660.103516 0)"/>
      <use xlink:href="#DejaVuSans-66" transform="translate(721.285156 0)"/>
      <use xlink:href="#DejaVuSans-20" transform="translate(756.490234 0)"/>
      <use xlink:href="#DejaVuSans-74" transform="translate(788.277344 0)"/>
      <use xlink:href="#DejaVuSans-6f" transform="translate(827.486328 0)"/>
      <use xlink:href="#DejaVuSans-74" transform="translate(888.667969 0)"/>
      <use xlink:href="#DejaVuSans-61" transform="translate(927.876953 0)"/>
      <use xlink:href="#DejaVuSans-6c" transform="translate(989.15625 0)"/>
      <use xlink:href="#DejaVuSans-20" transform="translate(1016.939453 0)"/>
      <use xlink:href="#DejaVuSans-61" transform="translate(1048.726562 0)"/>
      <use xlink:href="#DejaVuSans-6c" transform="translate(1110.005859 0)"/>
      <use xlink:href="#DejaVuSans-6c" transform="translate(1137.789062 0)"/>
      <use xlink:href="#DejaVuSans-6f" transform="translate(1165.572266 0)"/>
      <use xlink:href="#DejaVuSans-63" transform="translate(1226.753906 0)"/>
      <use xlink:href="#DejaVuSans-61" transform="translate(1281.734375 0)"/>
      <use xlink:href="#DejaVuSans-74" transform="translate(1343.013672 0)"/>
      <use xlink:href="#DejaVuSans-69" transform="translate(1382.222656 0)"/>
      <use xlink:href="#DejaVuSans-6f" transform="translate(1410.005859 0)"/>
      <use xlink:href="#DejaVuSans-6e" transform="translate(1471.1875 0)"/>
     </g>
    </g>
    <g id="patch_15">
     <path d="M 667.565745 503.164299 
L 687.565745 503.164299 
L 687.565745 496.164299 
L 667.565745 496.164299 
z
" style="fill: #1f77b4"/>
    </g>
    <g id="text_15">
     <!-- psutton: 0.0% -->
     <g transform="translate(695.565745 503.164299) scale(0.1 -0.1)">
      <use xlink:href="#DejaVuSans-70"/>
      <use xlink:href="#DejaVuSans-73" transform="translate(63.476562 0)"/>
      <use xlink:href="#DejaVuSans-75" transform="translate(115.576172 0)"/>
      <use xlink:href="#DejaVuSans-74" transform="translate(178.955078 0)"/>
      <use xlink:href="#DejaVuSans-74" transform="translate(218.164062 0)"/>
      <use xlink:href="#DejaVuSans-6f" transform="translate(257.373047 0)"/>
      <use xlink:href="#DejaVuSans-6e" transform="translate(318.554688 0)"/>
      <use xlink:href="#DejaVuSans-3a" transform="translate(381.933594 0)"/>
      <use xlink:href="#DejaVuSans-20" transform="translate(415.625 0)"/>
      <use xlink:href="#DejaVuSans-30" transform="translate(447.412109 0)"/>
      <use xlink:href="#DejaVuSans-2e" transform="translate(511.035156 0)"/>
      <use xlink:href="#DejaVuSans-30" transform="translate(542.822266 0)"/>
      <use xlink:href="#DejaVuSans-25" transform="translate(606.445312 0)"/>
     </g>
    </g>
    <g id="patch_16">
     <path d="M 667.565745 517.842424 
L 687.565745 517.842424 
L 687.565745 510.842424 
L 667.565745 510.842424 
z
" style="fill: #ff7f0e"/>
    </g>
    <g id="text_16">
     <!-- yhao: 0.9% -->
     <g transform="translate(695.565745 517.842424) scale(0.1 -0.1)">
      <defs>
       <path id="DejaVuSans-79" d="M 2059 -325 
Q 1816 -950 1584 -1140 
Q 1353 -1331 966 -1331 
L 506 -1331 
L 506 -850 
L 844 -850 
Q 1081 -850 1212 -737 
Q 1344 -625 1503 -206 
L 1606 56 
L 191 3500 
L 800 3500 
L 1894 763 
L 2988 3500 
L 3597 3500 
L 2059 -325 
z
" transform="scale(0.015625)"/>
       <path id="DejaVuSans-68" d="M 3513 2113 
L 3513 0 
L 2938 0 
L 2938 2094 
Q 2938 2591 2744 2837 
Q 2550 3084 2163 3084 
Q 1697 3084 1428 2787 
Q 1159 2491 1159 1978 
L 1159 0 
L 581 0 
L 581 4863 
L 1159 4863 
L 1159 2956 
Q 1366 3272 1645 3428 
Q 1925 3584 2291 3584 
Q 2894 3584 3203 3211 
Q 3513 2838 3513 2113 
z
" transform="scale(0.015625)"/>
      </defs>
      <use xlink:href="#DejaVuSans-79"/>
      <use xlink:href="#DejaVuSans-68" transform="translate(59.179688 0)"/>
      <use xlink:href="#DejaVuSans-61" transform="translate(122.558594 0)"/>
      <use xlink:href="#DejaVuSans-6f" transform="translate(183.837891 0)"/>
      <use xlink:href="#DejaVuSans-3a" transform="translate(245.019531 0)"/>
      <use xlink:href="#DejaVuSans-20" transform="translate(278.710938 0)"/>
      <use xlink:href="#DejaVuSans-30" transform="translate(310.498047 0)"/>
      <use xlink:href="#DejaVuSans-2e" transform="translate(374.121094 0)"/>
      <use xlink:href="#DejaVuSans-39" transform="translate(405.908203 0)"/>
      <use xlink:href="#DejaVuSans-25" transform="translate(469.53125 0)"/>
     </g>
    </g>
    <g id="patch_17">
     <path d="M 667.565745 532.520549 
L 687.565745 532.520549 
L 687.565745 525.520549 
L 667.565745 525.520549 
z
" style="fill: #2ca02c"/>
    </g>
    <g id="text_17">
     <!-- aks19: 35.1% -->
     <g transform="translate(695.565745 532.520549) scale(0.1 -0.1)">
      <use xlink:href="#DejaVuSans-61"/>
      <use xlink:href="#DejaVuSans-6b" transform="translate(61.279297 0)"/>
      <use xlink:href="#DejaVuSans-73" transform="translate(119.189453 0)"/>
      <use xlink:href="#DejaVuSans-31" transform="translate(171.289062 0)"/>
      <use xlink:href="#DejaVuSans-39" transform="translate(234.912109 0)"/>
      <use xlink:href="#DejaVuSans-3a" transform="translate(298.535156 0)"/>
      <use xlink:href="#DejaVuSans-20" transform="translate(332.226562 0)"/>
      <use xlink:href="#DejaVuSans-33" transform="translate(364.013672 0)"/>
      <use xlink:href="#DejaVuSans-35" transform="translate(427.636719 0)"/>
      <use xlink:href="#DejaVuSans-2e" transform="translate(491.259766 0)"/>
      <use xlink:href="#DejaVuSans-31" transform="translate(523.046875 0)"/>
      <use xlink:href="#DejaVuSans-25" transform="translate(586.669922 0)"/>
     </g>
    </g>
    <g id="patch_18">
     <path d="M 667.565745 547.198674 
L 687.565745 547.198674 
L 687.565745 540.198674 
L 667.565745 540.198674 
z
" style="fill: #d62728"/>
    </g>
    <g id="text_18">
     <!-- yfu: 0.3% -->
     <g transform="translate(695.565745 547.198674) scale(0.1 -0.1)">
      <use xlink:href="#DejaVuSans-79"/>
      <use xlink:href="#DejaVuSans-66" transform="translate(59.179688 0)"/>
      <use xlink:href="#DejaVuSans-75" transform="translate(94.384766 0)"/>
      <use xlink:href="#DejaVuSans-3a" transform="translate(157.763672 0)"/>
      <use xlink:href="#DejaVuSans-20" transform="translate(191.455078 0)"/>
      <use xlink:href="#DejaVuSans-30" transform="translate(223.242188 0)"/>
      <use xlink:href="#DejaVuSans-2e" transform="translate(286.865234 0)"/>
      <use xlink:href="#DejaVuSans-33" transform="translate(318.652344 0)"/>
      <use xlink:href="#DejaVuSans-25" transform="translate(382.275391 0)"/>
     </g>
    </g>
    <g id="patch_19">
     <path d="M 667.565745 561.876799 
L 687.565745 561.876799 
L 687.565745 554.876799 
L 667.565745 554.876799 
z
" style="fill: #9467bd"/>
    </g>
    <g id="text_19">
     <!-- remaining: 63.8% -->
     <g transform="translate(695.565745 561.876799) scale(0.1 -0.1)">
      <use xlink:href="#DejaVuSans-72"/>
      <use xlink:href="#DejaVuSans-65" transform="translate(38.863281 0)"/>
      <use xlink:href="#DejaVuSans-6d" transform="translate(100.386719 0)"/>
      <use xlink:href="#DejaVuSans-61" transform="translate(197.798828 0)"/>
      <use xlink:href="#DejaVuSans-69" transform="translate(259.078125 0)"/>
      <use xlink:href="#DejaVuSans-6e" transform="translate(286.861328 0)"/>
      <use xlink:href="#DejaVuSans-69" transform="translate(350.240234 0)"/>
      <use xlink:href="#DejaVuSans-6e" transform="translate(378.023438 0)"/>
      <use xlink:href="#DejaVuSans-67" transform="translate(441.402344 0)"/>
      <use xlink:href="#DejaVuSans-3a" transform="translate(504.878906 0)"/>
      <use xlink:href="#DejaVuSans-20" transform="translate(538.570312 0)"/>
      <use xlink:href="#DejaVuSans-36" transform="translate(570.357422 0)"/>
      <use xlink:href="#DejaVuSans-33" transform="translate(633.980469 0)"/>
      <use xlink:href="#DejaVuSans-2e" transform="translate(697.603516 0)"/>
      <use xlink:href="#DejaVuSans-38" transform="translate(729.390625 0)"/>
      <use xlink:href="#DejaVuSans-25" transform="translate(793.013672 0)"/>
     </g>
    </g>
   </g>
  </g>
  <g id="axes_3">
   <g id="patch_20">
    <path d="M 1375.099483 253.821618 
C 1375.099483 252.72549 1375.089152 251.629386 1375.068492 250.533453 
C 1375.047831 249.43752 1375.016843 248.341806 1374.975529 247.246457 
L 1200.646588 253.821618 
z
" style="fill: #1f77b4"/>
   </g>
   <g id="patch_21">
    <path d="M 1374.975529 247.246457 
C 1374.824033 243.229806 1374.533763 239.219592 1374.105239 235.222994 
C 1373.676715 231.226396 1373.110193 227.245801 1372.406686 223.288339 
L 1200.646588 253.821618 
z
" style="fill: #ff7f0e"/>
   </g>
   <g id="patch_22">
    <path d="M 1372.406686 223.288339 
C 1372.086936 221.489634 1371.738951 219.696064 1371.36286 217.90829 
C 1370.986768 216.120517 1370.582618 214.338762 1370.150557 212.563684 
L 1200.646588 253.821618 
z
" style="fill: #2ca02c"/>
   </g>
   <g id="patch_23">
    <path d="M 1370.150557 212.563684 
C 1369.718496 210.788606 1369.258578 209.020424 1368.770974 207.259794 
C 1368.283369 205.499163 1367.768139 203.746301 1367.225472 202.001855 
L 1200.646588 253.821618 
z
" style="fill: #d62728"/>
   </g>
   <g id="patch_24">
    <path d="M 1367.225472 202.001855 
C 1360.74913 181.183122 1350.426982 161.761808 1336.794934 144.746229 
C 1323.162885 127.730651 1306.461007 113.420465 1287.556427 102.558627 
C 1268.651847 91.69679 1247.877489 84.474587 1226.311917 81.266979 
C 1204.746344 78.059372 1182.769343 78.92285 1161.521916 83.812582 
C 1140.274488 88.702314 1120.130817 97.532189 1102.136722 109.843777 
C 1084.142627 122.155365 1068.614998 137.731851 1056.359997 155.764533 
C 1044.104997 173.797215 1035.338445 193.968524 1030.515484 215.231208 
C 1025.692523 236.493891 1024.898089 258.473496 1028.173427 280.028886 
C 1031.448765 301.584276 1038.736193 322.335843 1049.657364 341.206208 
C 1060.578535 360.076573 1074.941118 376.733415 1091.999437 390.311943 
C 1109.057755 403.890471 1128.511399 414.151558 1149.350375 420.562467 
C 1170.18935 426.973377 1192.046667 429.421209 1213.787536 427.778877 
C 1235.528406 426.136544 1256.769955 420.432971 1276.409365 410.964273 
C 1296.048775 401.495576 1313.740181 388.428506 1328.565081 372.44148 
C 1343.389981 356.454454 1355.087296 337.829015 1363.049727 317.532159 
C 1371.012157 297.235303 1375.099478 275.624473 1375.099483 253.82166 
L 1200.646588 253.821618 
z
" style="fill: #9467bd"/>
   </g>
   <g id="matplotlib.axis_5"/>
   <g id="matplotlib.axis_6"/>
   <g id="text_20">
    <!-- remaining -->
    <g transform="translate(960.438611 285.408988) scale(0.1 -0.1)">
     <use xlink:href="#DejaVuSans-72"/>
     <use xlink:href="#DejaVuSans-65" transform="translate(38.863281 0)"/>
     <use xlink:href="#DejaVuSans-6d" transform="translate(100.386719 0)"/>
     <use xlink:href="#DejaVuSans-61" transform="translate(197.798828 0)"/>
     <use xlink:href="#DejaVuSans-69" transform="translate(259.078125 0)"/>
     <use xlink:href="#DejaVuSans-6e" transform="translate(286.861328 0)"/>
     <use xlink:href="#DejaVuSans-69" transform="translate(350.240234 0)"/>
     <use xlink:href="#DejaVuSans-6e" transform="translate(378.023438 0)"/>
     <use xlink:href="#DejaVuSans-67" transform="translate(441.402344 0)"/>
    </g>
   </g>
   <g id="text_21">
    <!-- 95.2% -->
    <g transform="translate(1081.279098 272.305354) scale(0.1 -0.1)">
     <use xlink:href="#DejaVuSans-39"/>
     <use xlink:href="#DejaVuSans-35" transform="translate(63.623047 0)"/>
     <use xlink:href="#DejaVuSans-2e" transform="translate(127.246094 0)"/>
     <use xlink:href="#DejaVuSans-32" transform="translate(159.033203 0)"/>
     <use xlink:href="#DejaVuSans-25" transform="translate(222.65625 0)"/>
    </g>
   </g>
   <g id="text_22">
    <!-- $\mathbf{Setonix GPU}$  -->
    <g transform="translate(1158.946588 16.318125) scale(0.12 -0.12)">
     <use xlink:href="#DejaVuSans-Bold-53" transform="translate(0 0.015625)"/>
     <use xlink:href="#DejaVuSans-Bold-65" transform="translate(72.021484 0.015625)"/>
     <use xlink:href="#DejaVuSans-Bold-74" transform="translate(139.84375 0.015625)"/>
     <use xlink:href="#DejaVuSans-Bold-6f" transform="translate(187.646484 0.015625)"/>
     <use xlink:href="#DejaVuSans-Bold-6e" transform="translate(256.347656 0.015625)"/>
     <use xlink:href="#DejaVuSans-Bold-69" transform="translate(327.539062 0.015625)"/>
     <use xlink:href="#DejaVuSans-Bold-78" transform="translate(361.816406 0.015625)"/>
     <use xlink:href="#DejaVuSans-Bold-47" transform="translate(426.318359 0.015625)"/>
     <use xlink:href="#DejaVuSans-Bold-50" transform="translate(508.398438 0.015625)"/>
     <use xlink:href="#DejaVuSans-Bold-55" transform="translate(581.689453 0.015625)"/>
     <use xlink:href="#DejaVuSans-20" transform="translate(662.890625 0.015625)"/>
    </g>
    <!--  (as a percent of overall used) -->
    <g transform="translate(1110.461901 29.7555) scale(0.12 -0.12)">
     <use xlink:href="#DejaVuSans-20"/>
     <use xlink:href="#DejaVuSans-28" transform="translate(31.787109 0)"/>
     <use xlink:href="#DejaVuSans-61" transform="translate(70.800781 0)"/>
     <use xlink:href="#DejaVuSans-73" transform="translate(132.080078 0)"/>
     <use xlink:href="#DejaVuSans-20" transform="translate(184.179688 0)"/>
     <use xlink:href="#DejaVuSans-61" transform="translate(215.966797 0)"/>
     <use xlink:href="#DejaVuSans-20" transform="translate(277.246094 0)"/>
     <use xlink:href="#DejaVuSans-70" transform="translate(309.033203 0)"/>
     <use xlink:href="#DejaVuSans-65" transform="translate(372.509766 0)"/>
     <use xlink:href="#DejaVuSans-72" transform="translate(434.033203 0)"/>
     <use xlink:href="#DejaVuSans-63" transform="translate(472.896484 0)"/>
     <use xlink:href="#DejaVuSans-65" transform="translate(527.876953 0)"/>
     <use xlink:href="#DejaVuSans-6e" transform="translate(589.400391 0)"/>
     <use xlink:href="#DejaVuSans-74" transform="translate(652.779297 0)"/>
     <use xlink:href="#DejaVuSans-20" transform="translate(691.988281 0)"/>
     <use xlink:href="#DejaVuSans-6f" transform="translate(723.775391 0)"/>
     <use xlink:href="#DejaVuSans-66" transform="translate(784.957031 0)"/>
     <use xlink:href="#DejaVuSans-20" transform="translate(820.162109 0)"/>
     <use xlink:href="#DejaVuSans-6f" transform="translate(851.949219 0)"/>
     <use xlink:href="#DejaVuSans-76" transform="translate(913.130859 0)"/>
     <use xlink:href="#DejaVuSans-65" transform="translate(972.310547 0)"/>
     <use xlink:href="#DejaVuSans-72" transform="translate(1033.833984 0)"/>
     <use xlink:href="#DejaVuSans-61" transform="translate(1074.947266 0)"/>
     <use xlink:href="#DejaVuSans-6c" transform="translate(1136.226562 0)"/>
     <use xlink:href="#DejaVuSans-6c" transform="translate(1164.009766 0)"/>
     <use xlink:href="#DejaVuSans-20" transform="translate(1191.792969 0)"/>
     <use xlink:href="#DejaVuSans-75" transform="translate(1223.580078 0)"/>
     <use xlink:href="#DejaVuSans-73" transform="translate(1286.958984 0)"/>
     <use xlink:href="#DejaVuSans-65" transform="translate(1339.058594 0)"/>
     <use xlink:href="#DejaVuSans-64" transform="translate(1400.582031 0)"/>
     <use xlink:href="#DejaVuSans-29" transform="translate(1464.058594 0)"/>
    </g>
   </g>
   <g id="legend_3">
    <g id="text_23">
     <!-- As a percent of total allocation -->
     <g transform="translate(1125.418348 488.486174) scale(0.1 -0.1)">
      <use xlink:href="#DejaVuSans-41"/>
      <use xlink:href="#DejaVuSans-73" transform="translate(68.408203 0)"/>
      <use xlink:href="#DejaVuSans-20" transform="translate(120.507812 0)"/>
      <use xlink:href="#DejaVuSans-61" transform="translate(152.294922 0)"/>
      <use xlink:href="#DejaVuSans-20" transform="translate(213.574219 0)"/>
      <use xlink:href="#DejaVuSans-70" transform="translate(245.361328 0)"/>
      <use xlink:href="#DejaVuSans-65" transform="translate(308.837891 0)"/>
      <use xlink:href="#DejaVuSans-72" transform="translate(370.361328 0)"/>
      <use xlink:href="#DejaVuSans-63" transform="translate(409.224609 0)"/>
      <use xlink:href="#DejaVuSans-65" transform="translate(464.205078 0)"/>
      <use xlink:href="#DejaVuSans-6e" transform="translate(525.728516 0)"/>
      <use xlink:href="#DejaVuSans-74" transform="translate(589.107422 0)"/>
      <use xlink:href="#DejaVuSans-20" transform="translate(628.316406 0)"/>
      <use xlink:href="#DejaVuSans-6f" transform="translate(660.103516 0)"/>
      <use xlink:href="#DejaVuSans-66" transform="translate(721.285156 0)"/>
      <use xlink:href="#DejaVuSans-20" transform="translate(756.490234 0)"/>
      <use xlink:href="#DejaVuSans-74" transform="translate(788.277344 0)"/>
      <use xlink:href="#DejaVuSans-6f" transform="translate(827.486328 0)"/>
      <use xlink:href="#DejaVuSans-74" transform="translate(888.667969 0)"/>
      <use xlink:href="#DejaVuSans-61" transform="translate(927.876953 0)"/>
      <use xlink:href="#DejaVuSans-6c" transform="translate(989.15625 0)"/>
      <use xlink:href="#DejaVuSans-20" transform="translate(1016.939453 0)"/>
      <use xlink:href="#DejaVuSans-61" transform="translate(1048.726562 0)"/>
      <use xlink:href="#DejaVuSans-6c" transform="translate(1110.005859 0)"/>
      <use xlink:href="#DejaVuSans-6c" transform="translate(1137.789062 0)"/>
      <use xlink:href="#DejaVuSans-6f" transform="translate(1165.572266 0)"/>
      <use xlink:href="#DejaVuSans-63" transform="translate(1226.753906 0)"/>
      <use xlink:href="#DejaVuSans-61" transform="translate(1281.734375 0)"/>
      <use xlink:href="#DejaVuSans-74" transform="translate(1343.013672 0)"/>
      <use xlink:href="#DejaVuSans-69" transform="translate(1382.222656 0)"/>
      <use xlink:href="#DejaVuSans-6f" transform="translate(1410.005859 0)"/>
      <use xlink:href="#DejaVuSans-6e" transform="translate(1471.1875 0)"/>
     </g>
    </g>
    <g id="patch_25">
     <path d="M 1143.744911 503.164299 
L 1163.744911 503.164299 
L 1163.744911 496.164299 
L 1143.744911 496.164299 
z
" style="fill: #1f77b4"/>
    </g>
    <g id="text_24">
     <!-- psutton: 0.6% -->
     <g transform="translate(1171.744911 503.164299) scale(0.1 -0.1)">
      <use xlink:href="#DejaVuSans-70"/>
      <use xlink:href="#DejaVuSans-73" transform="translate(63.476562 0)"/>
      <use xlink:href="#DejaVuSans-75" transform="translate(115.576172 0)"/>
      <use xlink:href="#DejaVuSans-74" transform="translate(178.955078 0)"/>
      <use xlink:href="#DejaVuSans-74" transform="translate(218.164062 0)"/>
      <use xlink:href="#DejaVuSans-6f" transform="translate(257.373047 0)"/>
      <use xlink:href="#DejaVuSans-6e" transform="translate(318.554688 0)"/>
      <use xlink:href="#DejaVuSans-3a" transform="translate(381.933594 0)"/>
      <use xlink:href="#DejaVuSans-20" transform="translate(415.625 0)"/>
      <use xlink:href="#DejaVuSans-30" transform="translate(447.412109 0)"/>
      <use xlink:href="#DejaVuSans-2e" transform="translate(511.035156 0)"/>
      <use xlink:href="#DejaVuSans-36" transform="translate(542.822266 0)"/>
      <use xlink:href="#DejaVuSans-25" transform="translate(606.445312 0)"/>
     </g>
    </g>
    <g id="patch_26">
     <path d="M 1143.744911 517.842424 
L 1163.744911 517.842424 
L 1163.744911 510.842424 
L 1143.744911 510.842424 
z
" style="fill: #ff7f0e"/>
    </g>
    <g id="text_25">
     <!-- aks19: 2.2% -->
     <g transform="translate(1171.744911 517.842424) scale(0.1 -0.1)">
      <use xlink:href="#DejaVuSans-61"/>
      <use xlink:href="#DejaVuSans-6b" transform="translate(61.279297 0)"/>
      <use xlink:href="#DejaVuSans-73" transform="translate(119.189453 0)"/>
      <use xlink:href="#DejaVuSans-31" transform="translate(171.289062 0)"/>
      <use xlink:href="#DejaVuSans-39" transform="translate(234.912109 0)"/>
      <use xlink:href="#DejaVuSans-3a" transform="translate(298.535156 0)"/>
      <use xlink:href="#DejaVuSans-20" transform="translate(332.226562 0)"/>
      <use xlink:href="#DejaVuSans-32" transform="translate(364.013672 0)"/>
      <use xlink:href="#DejaVuSans-2e" transform="translate(427.636719 0)"/>
      <use xlink:href="#DejaVuSans-32" transform="translate(459.423828 0)"/>
      <use xlink:href="#DejaVuSans-25" transform="translate(523.046875 0)"/>
     </g>
    </g>
    <g id="patch_27">
     <path d="M 1143.744911 532.520549 
L 1163.744911 532.520549 
L 1163.744911 525.520549 
L 1143.744911 525.520549 
z
" style="fill: #2ca02c"/>
    </g>
    <g id="text_26">
     <!-- yfu: 1.0% -->
     <g transform="translate(1171.744911 532.520549) scale(0.1 -0.1)">
      <use xlink:href="#DejaVuSans-79"/>
      <use xlink:href="#DejaVuSans-66" transform="translate(59.179688 0)"/>
      <use xlink:href="#DejaVuSans-75" transform="translate(94.384766 0)"/>
      <use xlink:href="#DejaVuSans-3a" transform="translate(157.763672 0)"/>
      <use xlink:href="#DejaVuSans-20" transform="translate(191.455078 0)"/>
      <use xlink:href="#DejaVuSans-31" transform="translate(223.242188 0)"/>
      <use xlink:href="#DejaVuSans-2e" transform="translate(286.865234 0)"/>
      <use xlink:href="#DejaVuSans-30" transform="translate(318.652344 0)"/>
      <use xlink:href="#DejaVuSans-25" transform="translate(382.275391 0)"/>
     </g>
    </g>
    <g id="patch_28">
     <path d="M 1143.744911 547.198674 
L 1163.744911 547.198674 
L 1163.744911 540.198674 
L 1143.744911 540.198674 
z
" style="fill: #d62728"/>
    </g>
    <g id="text_27">
     <!-- yhao: 1.0% -->
     <g transform="translate(1171.744911 547.198674) scale(0.1 -0.1)">
      <use xlink:href="#DejaVuSans-79"/>
      <use xlink:href="#DejaVuSans-68" transform="translate(59.179688 0)"/>
      <use xlink:href="#DejaVuSans-61" transform="translate(122.558594 0)"/>
      <use xlink:href="#DejaVuSans-6f" transform="translate(183.837891 0)"/>
      <use xlink:href="#DejaVuSans-3a" transform="translate(245.019531 0)"/>
      <use xlink:href="#DejaVuSans-20" transform="translate(278.710938 0)"/>
      <use xlink:href="#DejaVuSans-31" transform="translate(310.498047 0)"/>
      <use xlink:href="#DejaVuSans-2e" transform="translate(374.121094 0)"/>
      <use xlink:href="#DejaVuSans-30" transform="translate(405.908203 0)"/>
      <use xlink:href="#DejaVuSans-25" transform="translate(469.53125 0)"/>
     </g>
    </g>
    <g id="patch_29">
     <path d="M 1143.744911 561.876799 
L 1163.744911 561.876799 
L 1163.744911 554.876799 
L 1143.744911 554.876799 
z
" style="fill: #9467bd"/>
    </g>
    <g id="text_28">
     <!-- remaining: 95.2% -->
     <g transform="translate(1171.744911 561.876799) scale(0.1 -0.1)">
      <use xlink:href="#DejaVuSans-72"/>
      <use xlink:href="#DejaVuSans-65" transform="translate(38.863281 0)"/>
      <use xlink:href="#DejaVuSans-6d" transform="translate(100.386719 0)"/>
      <use xlink:href="#DejaVuSans-61" transform="translate(197.798828 0)"/>
      <use xlink:href="#DejaVuSans-69" transform="translate(259.078125 0)"/>
      <use xlink:href="#DejaVuSans-6e" transform="translate(286.861328 0)"/>
      <use xlink:href="#DejaVuSans-69" transform="translate(350.240234 0)"/>
      <use xlink:href="#DejaVuSans-6e" transform="translate(378.023438 0)"/>
      <use xlink:href="#DejaVuSans-67" transform="translate(441.402344 0)"/>
      <use xlink:href="#DejaVuSans-3a" transform="translate(504.878906 0)"/>
      <use xlink:href="#DejaVuSans-20" transform="translate(538.570312 0)"/>
      <use xlink:href="#DejaVuSans-39" transform="translate(570.357422 0)"/>
      <use xlink:href="#DejaVuSans-35" transform="translate(633.980469 0)"/>
      <use xlink:href="#DejaVuSans-2e" transform="translate(697.603516 0)"/>
      <use xlink:href="#DejaVuSans-32" transform="translate(729.390625 0)"/>
      <use xlink:href="#DejaVuSans-25" transform="translate(793.013672 0)"/>
     </g>
    </g>
   </g>
  </g>
 </g>
</svg>
